<svg viewBox="0 0 20 20" xmlns="http://www.w3.org/2000/svg">
<path d="M10 16C13.3137 16 16 13.3137 16 10C16 6.68629 13.3137 4 10 4C6.68629 4 4 6.68629 4 10C4 13.3137 6.68629 16 10 16ZM18 10C18 14.4183 14.4183 18 10 18C5.58172 18 2 14.4183 2 10C2 5.58172 5.58172 2 10 2C14.4183 2 18 5.58172 18 10Z"/>
<path d="M10 11C9.44772 11 9 10.5523 9 10V7.10714C9 6.55485 9.44772 6.10714 10 6.10714C10.5523 6.10714 11 6.55485 11 7.10714V10C11 10.5523 10.5523 11 10 11Z"/>
<path d="M9.99958 11.9285C9.46702 11.9285 9.0353 12.3603 9.0353 12.8928C9.0353 13.4254 9.46702 13.8571 9.99958 13.8571C10.5321 13.8571 10.9639 13.4254 10.9639 12.8928C10.9639 12.3603 10.5321 11.9285 9.99958 11.9285Z"/>
</svg>
