<svg viewBox="0 0 20 20" xmlns="http://www.w3.org/2000/svg">
  <path d="M10 16C13.3137 16 16 13.3137 16 10C16 6.68629 13.3137 4 10 4C6.68629 4 4 6.68629 4 10C4 13.3137 6.68629 16 10 16ZM18 10C18 14.4183 14.4183 18 10 18C5.58172 18 2 14.4183 2 10C2 5.58172 5.58172 2 10 2C14.4183 2 18 5.58172 18 10Z"/>
  <path d="m 13.808795,7.3945849 c 0.3905,0.39053 0.3905,1.02369 0,1.41422 L 9.8088049,12.808795 c -0.18754,0.1875 -0.44189,0.2929 -0.70711,0.2929 -0.26522,0 -0.51957,-0.1054 -0.70711,-0.2929 l -2,-1.99999 c -0.39052,-0.39053 -0.39052,-1.0236901 0,-1.4142201 0.39053,-0.39052 1.02369,-0.39052 1.41422,0 l 1.29289,1.2929001 3.2929001,-3.2929001 c 0.3905,-0.39052 1.0237,-0.39052 1.4142,0 z"/>
</svg>