<svg viewBox="0 0 20 20" xmlns="http://www.w3.org/2000/svg">
<path d="M9.93746 14.6666H10.1875C10.7397 14.6666 11.1875 14.2189 11.1875 13.6666V9.66663C11.1875 9.11434 10.7397 8.66663 10.1875 8.66663H9.93746C9.38517 8.66663 8.93746 9.11434 8.93746 9.66663V13.6666C8.93746 14.2189 9.38517 14.6666 9.93746 14.6666Z"/>
<path d="M9.99996 8.12496C10.3125 8.12496 10.6017 8.01994 10.8334 7.80044C11.0725 7.57389 11.1875 7.27933 11.1875 6.95829C11.1875 6.63782 11.0737 6.34727 10.852 6.11392C10.6241 5.87399 10.3291 5.74996 9.99996 5.74996C9.67079 5.74996 9.37581 5.87399 9.14788 6.11392C8.92619 6.34727 8.81246 6.63782 8.81246 6.95829C8.81246 7.27933 8.92737 7.57389 9.1665 7.80044C9.39821 8.01994 9.68739 8.12496 9.99996 8.12496Z"/>
<path fill-rule="evenodd" clip-rule="evenodd" d="M6.57269 18.1361C7.65112 18.6015 8.79513 18.8333 9.99996 18.8333C11.2178 18.8333 12.3689 18.6018 13.4481 18.1361C14.5185 17.6742 15.4543 17.0413 16.251 16.2373C17.0465 15.4344 17.6748 14.4963 18.1361 13.4272C18.6015 12.3488 18.8333 11.2048 18.8333 9.99996C18.8333 8.78211 18.6018 7.63105 18.1361 6.55186C17.6746 5.48238 17.0459 4.54709 16.2493 3.75057C15.4528 2.95406 14.5175 2.32528 13.4481 1.86379C12.3696 1.39845 11.2256 1.16663 10.0208 1.16663C8.80294 1.16663 7.65188 1.39811 6.57269 1.86379C5.50361 2.32511 4.56551 2.95342 3.76262 3.74895C2.95859 4.54561 2.3257 5.48141 1.86379 6.55186C1.39845 7.63028 1.16663 8.77429 1.16663 9.97913C1.16663 11.197 1.39811 12.348 1.86379 13.4272C2.32552 14.4973 2.95795 15.4359 3.76099 16.2389C4.56403 17.042 5.50265 17.6744 6.57269 18.1361ZM14.6663 14.6577C13.3857 15.9449 11.8468 16.5833 10.0208 16.5833C8.17982 16.5833 6.63031 15.944 5.3431 14.6568C4.05513 13.3689 3.41663 11.826 3.41663 9.99996C3.41663 8.15903 4.0558 6.6135 5.3422 5.33357C6.62998 4.05227 8.17312 3.41663 9.99996 3.41663C11.8417 3.41663 13.3875 4.05294 14.6672 5.33268C15.9477 6.61316 16.5833 8.15234 16.5833 9.97913C16.5833 11.8209 15.9469 13.3707 14.6663 14.6577Z"/>
</svg>
