<svg viewBox="0 0 20 20" xmlns="http://www.w3.org/2000/svg">
<path d="M11 6C11 5.44772 10.5523 5 10 5C9.44772 5 9 5.44772 9 6V7H8C7.44772 7 7 7.44772 7 8C7 8.55228 7.44772 9 8 9H9V10C9 10.5523 9.44772 11 10 11C10.5523 11 11 10.5523 11 10V9H12C12.5523 9 13 8.55228 13 8C13 7.44772 12.5523 7 12 7H11V6Z"/>
<path fill-rule="evenodd" clip-rule="evenodd" d="M3 3C3 2.44772 3.44772 2 4 2H16C16.5523 2 17 2.44772 17 3V16C17.5523 16 18 16.4477 18 17C18 17.5523 17.5523 18 17 18H3C2.44772 18 2 17.5523 2 17C2 16.4477 2.44772 16 3 16V3ZM9 16H11V15H9V16ZM13 16V14C13 13.4477 12.5523 13 12 13H8C7.44772 13 7 13.4477 7 14V16H5V4H15V16H13Z"/>
</svg>
