<svg viewBox="0 0 20 20" xmlns="http://www.w3.org/2000/svg">
<path d="M10 6.5C10.5523 6.5 11 6.94772 11 7.5V9H12.5C13.0523 9 13.5 9.44772 13.5 10C13.5 10.5523 13.0523 11 12.5 11H11V12.5C11 13.0523 10.5523 13.5 10 13.5C9.44772 13.5 9 13.0523 9 12.5V11H7.5C6.94772 11 6.5 10.5523 6.5 10C6.5 9.44772 6.94772 9 7.5 9H9V7.5C9 6.94772 9.44772 6.5 10 6.5Z"/>
<path fill-rule="evenodd" clip-rule="evenodd" d="M9.6723 2.06737C9.90447 1.97754 10.1618 1.97754 10.394 2.06737L17.2864 4.73404C17.6333 4.86824 17.877 5.18384 17.9191 5.55336C17.9191 5.55316 17.9173 5.55336 17.7949 5.56738C17.6707 5.58159 17.4224 5.61002 16.9258 5.66664L17.9191 5.55336L17.9197 5.55823L17.9207 5.56721L17.9238 5.59733C17.9264 5.62272 17.9299 5.65862 17.9341 5.70435C17.9423 5.79578 17.9529 5.92664 17.9632 6.09132C17.9837 6.42037 18.0031 6.88625 17.9996 7.44383C17.9926 8.55276 17.8948 10.0541 17.5194 11.5732C17.146 13.0849 16.4793 14.6889 15.2811 15.9251C14.0552 17.1899 12.3387 18 10.0331 18C7.63601 18 5.86432 17.2011 4.61016 15.9321C3.38224 14.6896 2.72763 13.0755 2.38105 11.5557C2.03308 10.0298 1.97821 8.52329 2.00638 7.41215C2.02055 6.85322 2.05598 6.38623 2.08822 6.05635C2.10436 5.89125 2.11975 5.76001 2.13138 5.66824C2.1372 5.62234 2.14208 5.58627 2.14565 5.56073L2.14998 5.53039L2.15132 5.5213L2.15177 5.5183L2.15194 5.51719L3.1407 5.66667C2.15206 5.51634 2.152 5.51674 2.15194 5.51719C2.20583 5.16273 2.44549 4.86341 2.77987 4.73404L9.6723 2.06737ZM4.06664 6.38066C4.04181 6.66014 4.01671 7.03005 4.00573 7.46285C3.98003 8.47671 4.03282 9.80351 4.33099 11.111C4.63054 12.4245 5.16056 13.6438 6.0327 14.5262C6.87859 15.3822 8.12239 16 10.0331 16C11.82 16 13.0112 15.3934 13.845 14.5332C14.7064 13.6444 15.2513 12.4151 15.5778 11.0935C15.9025 9.77925 15.9932 8.44724 15.9996 7.43117C16.0023 7.01022 15.9905 6.64861 15.976 6.37151L10.0331 4.07224L4.06664 6.38066Z"/>
</svg>
