<svg viewBox="0 0 20 20" xmlns="http://www.w3.org/2000/svg">
<path d="M10.0588 13C10.6111 13 11.0588 12.5523 11.0588 12C11.0588 11.4477 10.6111 11 10.0588 11C9.50653 11 9.05881 11.4477 9.05881 12C9.05881 12.5523 9.50653 13 10.0588 13Z"/>
<path d="M8.00001 12C8.00001 12.5523 7.55229 13 7.00001 13C6.44772 13 6.00001 12.5523 6.00001 12C6.00001 11.4477 6.44772 11 7.00001 11C7.55229 11 8.00001 11.4477 8.00001 12Z"/>
<path d="M14.1177 12C14.1177 12.5523 13.6699 13 13.1177 13C12.5654 13 12.1177 12.5523 12.1177 12C12.1177 11.4477 12.5654 11 13.1177 11C13.6699 11 14.1177 11.4477 14.1177 12Z"/>
<path fill-rule="evenodd" clip-rule="evenodd" d="M12.2929 3.29289C12.6834 2.90237 13.3166 2.90237 13.7071 3.29289L16.4142 6H16.5902C17.8424 6 18.7867 7.13775 18.5559 8.36858L17.0559 16.3686C16.8785 17.3145 16.0526 18 15.0902 18H5.2348C4.29492 18 3.48185 17.3456 3.281 16.4274L1.531 8.42739C1.25816 7.18011 2.20802 6 3.4848 6H3.58579L6.2929 3.29289C6.68342 2.90237 7.31659 2.90237 7.70711 3.29289C8.09764 3.68342 8.09764 4.31658 7.70711 4.70711L6.41422 6H13.5858L12.2929 4.70711C11.9024 4.31658 11.9024 3.68342 12.2929 3.29289ZM3.4848 8H16.5902L15.0902 16H5.2348L3.4848 8Z"/>
</svg>
