<svg viewBox="0 0 20 20" xmlns="http://www.w3.org/2000/svg">
<path d="M8.41178 10C8.41178 10.5523 7.93772 11 7.35295 11C6.76818 11 6.29413 10.5523 6.29413 10C6.29413 9.44772 6.76818 9 7.35295 9C7.93772 9 8.41178 9.44772 8.41178 10Z"/>
<path fill-rule="evenodd" clip-rule="evenodd" d="M1 5V15C1 16.1046 1.89543 17 3 17H17C18.1046 17 19 16.1046 19 15V5C19 3.89543 18.1046 3 17 3H3C1.89543 3 1 3.89543 1 5ZM17 5H3V6H7.58823C9.79737 6 11.5882 7.79086 11.5882 10C11.5882 12.2091 9.79737 14 7.58823 14H3V15H17V5ZM3 12V8H7.58823C8.6928 8 9.58823 8.89543 9.58823 10C9.58823 11.1046 8.6928 12 7.58823 12H3Z"/>
</svg>
