<svg viewBox="0 0 20 20" xmlns="http://www.w3.org/2000/svg">
<path d="M7 10C7 9.44772 7.44772 9 8 9H12C12.5523 9 13 9.44772 13 10C13 10.5523 12.5523 11 12 11H8C7.44772 11 7 10.5523 7 10Z"/>
<path d="M8 12C7.44772 12 7 12.4477 7 13C7 13.5523 7.44772 14 8 14H12C12.5523 14 13 13.5523 13 13C13 12.4477 12.5523 12 12 12H8Z"/>
<path fill-rule="evenodd" clip-rule="evenodd" d="M13.8316 3H14.5C15.1511 3 15.7828 3.24872 16.2543 3.70275C16.7271 4.15801 17 4.7837 17 5.44444V15.5556C17 16.2163 16.7271 16.842 16.2543 17.2973C15.7828 17.7513 15.1511 18 14.5 18H5.5C4.84888 18 4.21719 17.7513 3.7457 17.2973C3.27293 16.842 3 16.2163 3 15.5556V5.44444C3 4.7837 3.27293 4.15801 3.7457 3.70275C4.21719 3.24872 4.84888 3 5.5 3H6.16841C6.44927 2.40876 7.0519 2 7.75 2H12.25C12.9481 2 13.5507 2.40876 13.8316 3ZM8 5V4H12V5H8ZM14 5V5.25C14 6.2165 13.2165 7 12.25 7H7.75C6.7835 7 6 6.2165 6 5.25V5H5.5C5.35547 5 5.2241 5.05564 5.13298 5.14339C5.04314 5.2299 5 5.33901 5 5.44444V15.5556C5 15.661 5.04314 15.7701 5.13298 15.8566C5.2241 15.9444 5.35547 16 5.5 16H14.5C14.6445 16 14.7759 15.9444 14.867 15.8566C14.9569 15.7701 15 15.661 15 15.5556V5.44444C15 5.33901 14.9569 5.2299 14.867 5.14339C14.7759 5.05564 14.6445 5 14.5 5H14Z"/>
</svg>
