<svg viewBox="0 0 20 20" xmlns="http://www.w3.org/2000/svg">
<path d="M3 4C3 3.44772 3.44772 3 4 3H16C16.5523 3 17 3.44772 17 4C17 4.55229 16.5523 5 16 5L4 5C3.44772 5 3 4.55228 3 4Z"/>
<path d="M13 11C13 10.4477 12.5523 10 12 10C11.4477 10 11 10.4477 11 11V13C11 13.5523 11.4477 14 12 14C12.5523 14 13 13.5523 13 13V11Z"/>
<path d="M8 10C6.89543 10 6 10.8954 6 12C6 13.1046 6.89543 14 8 14C9.10457 14 10 13.1046 10 12C10 10.8954 9.10457 10 8 10Z"/>
<path fill-rule="evenodd" clip-rule="evenodd" d="M2 8C2 6.89543 2.89543 6 4 6H16C17.1046 6 18 6.89543 18 8V16C18 17.1046 17.1046 18 16 18H4C2.89543 18 2 17.1046 2 16V8ZM4 8H16V16H4V8Z"/>
</svg>
