<svg viewBox="0 0 20 20" xmlns="http://www.w3.org/2000/svg">
<path d="M7 11C7 10.4477 7.44772 10 8 10H9V9C9 8.44772 9.44772 8 10 8C10.5523 8 11 8.44772 11 9V10H12C12.5523 10 13 10.4477 13 11C13 11.5523 12.5523 12 12 12H11V13C11 13.5523 10.5523 14 10 14C9.44771 14 9 13.5523 9 13V12H8C7.44772 12 7 11.5523 7 11Z"/>
<path fill-rule="evenodd" clip-rule="evenodd" d="M1 5C1 3.89543 1.89543 3 3 3H7.57037C7.77626 3 7.97713 3.06355 8.14555 3.18197L9.78304 4.33333H17C18.1046 4.33333 19 5.22876 19 6.33333V16C19 17.1046 18.1046 18 17 18H3C1.89543 18 1 17.1046 1 16V5ZM7.254 5H3V16L17 16L17 6.33333H9.46667C9.26078 6.33333 9.05991 6.26978 8.89149 6.15136L7.254 5Z"/>
</svg>
