<svg viewBox="0 0 20 20" xmlns="http://www.w3.org/2000/svg">
<path fill-rule="evenodd" clip-rule="evenodd" d="M16 4H3V13.6275H12.7298C13.7781 13.6275 14.7845 14.0391 15.5325 14.7736L16 15.2327V4ZM3 2C1.89543 2 1 2.89543 1 4V13.6275C1 14.7321 1.89543 15.6275 3 15.6275H12.7298C13.2539 15.6275 13.7572 15.8333 14.1311 16.2006L14.5986 16.6597C15.8637 17.9021 18 17.0058 18 15.2327V4C18 2.89543 17.1046 2 16 2H3Z"/>
<path fill-rule="evenodd" clip-rule="evenodd" d="M12.7557 6.34507C13.1174 6.76242 13.0723 7.39398 12.6549 7.75569L9.19339 10.7557C8.81279 11.0855 8.24628 11.0809 7.87117 10.7448L6.33271 9.36642C5.92137 8.99788 5.88667 8.36566 6.25521 7.95433C6.62374 7.54299 7.25596 7.50829 7.66729 7.87683L8.54944 8.66719L11.3451 6.24431C11.7624 5.8826 12.394 5.92771 12.7557 6.34507Z"/>
</svg>
