<svg viewBox="0 0 20 20" xmlns="http://www.w3.org/2000/svg">
<path fill-rule="evenodd" clip-rule="evenodd" d="M7.55411 2.34434C8.67538 1.3888 10.3245 1.3888 11.4458 2.34434L12.2581 3.03653C12.4182 3.17302 12.6174 3.25551 12.8271 3.27225L13.8909 3.35714C15.3595 3.47433 16.5256 4.64046 16.6428 6.10899L16.7277 7.17279C16.7444 7.38256 16.8269 7.5817 16.9634 7.74186L17.6556 8.55411C18.6111 9.67538 18.6111 11.3245 17.6556 12.4458L16.9634 13.2581C16.8269 13.4182 16.7444 13.6174 16.7277 13.8271L16.6428 14.8909C16.5256 16.3595 15.3595 17.5256 13.8909 17.6428L12.8271 17.7277C12.6174 17.7444 12.4182 17.8269 12.2581 17.9634L11.4458 18.6556C10.3245 19.6111 8.67538 19.6111 7.55411 18.6556L6.74186 17.9634C6.5817 17.8269 6.38256 17.7444 6.17279 17.7277L5.10899 17.6428C3.64047 17.5256 2.47433 16.3595 2.35714 14.8909L2.27225 13.8271C2.25551 13.6174 2.17302 13.4182 2.03653 13.2581L1.34434 12.4458C0.388801 11.3245 0.388799 9.67538 1.34434 8.55411L2.03653 7.74186C2.17302 7.5817 2.25551 7.38256 2.27225 7.17279L2.35714 6.10899C2.47433 4.64047 3.64046 3.47433 5.10899 3.35714L6.17279 3.27225C6.38256 3.25551 6.5817 3.17302 6.74186 3.03653L7.55411 2.34434ZM10.1486 3.86657C9.77482 3.54806 9.2251 3.54806 8.85134 3.86657L8.0391 4.55876C7.5586 4.96823 6.96118 5.21569 6.33189 5.26591L5.26809 5.3508C4.77858 5.38987 4.38987 5.77858 4.3508 6.26809L4.26591 7.33189C4.21569 7.96119 3.96823 8.55861 3.55876 9.0391L2.86657 9.85134C2.54806 10.2251 2.54806 10.7748 2.86657 11.1486L3.55876 11.9608C3.96823 12.4413 4.21569 13.0387 4.26591 13.668L4.3508 14.7318C4.38987 15.2213 4.77858 15.6101 5.26809 15.6491L6.33189 15.734C6.96119 15.7842 7.55861 16.0317 8.0391 16.4412L8.85134 17.1334C9.2251 17.4519 9.77482 17.4519 10.1486 17.1333L10.9608 16.4412C11.4413 16.0317 12.0387 15.7842 12.668 15.734L13.7318 15.6491C14.2213 15.6101 14.6101 15.2213 14.6491 14.7318L14.734 13.668C14.7842 13.0387 15.0317 12.4413 15.4412 11.9608L16.1334 11.1486C16.4519 10.7748 16.4519 10.2251 16.1333 9.85134L15.4412 9.0391C15.0317 8.5586 14.7842 7.96118 14.734 7.33189L14.6491 6.26809C14.6101 5.77858 14.2213 5.38987 13.7318 5.3508L12.668 5.26591C12.0387 5.21569 11.4413 4.96823 10.9608 4.55876L10.1486 3.86657Z"/>
<path d="M12.2808 8.62466C12.6258 8.19339 12.5559 7.5641 12.1247 7.21909C11.6934 6.87408 11.0641 6.944 10.7191 7.37527L6.71909 12.3753C6.37408 12.8065 6.444 13.4358 6.87527 13.7808C7.30653 14.1258 7.93582 14.0559 8.28083 13.6247L12.2808 8.62466Z"/>
<path d="M8.49996 8.5C8.49996 9.32842 7.82839 10 6.99996 10C6.17153 10 5.49996 9.32842 5.49996 8.5C5.49996 7.67157 6.17153 7 6.99996 7C7.82839 7 8.49996 7.67157 8.49996 8.5Z"/>
<path d="M13.5 12.5C13.5 13.3284 12.8284 14 12 14C11.1715 14 10.5 13.3284 10.5 12.5C10.5 11.6715 11.1715 11 12 11C12.8284 11 13.5 11.6715 13.5 12.5Z"/>
</svg>
