<svg viewBox="0 0 20 20" xmlns="http://www.w3.org/2000/svg">
<mask id="path-1-inside-1_109_974" fill="red">
<path fill-rule="evenodd" clip-rule="evenodd" d="M10 16C13.3137 16 16 13.3137 16 10C16 6.68629 13.3137 4 10 4C6.68629 4 4 6.68629 4 10C4 13.3137 6.68629 16 10 16ZM18 10C18 14.4183 14.4183 18 10 18C5.58172 18 2 14.4183 2 10C2 5.58172 5.58172 2 10 2C14.4183 2 18 5.58172 18 10Z"/>
<path fill-rule="evenodd" clip-rule="evenodd" d="M10 11C9.44772 11 9 10.5523 9 10V7.10714C9 6.55485 9.44772 6.10714 10 6.10714C10.5523 6.10714 11 6.55485 11 7.10714V10C11 10.5523 10.5523 11 10 11Z"/>
<path d="M9.99958 11.9285C9.46702 11.9285 9.0353 12.3603 9.0353 12.8928C9.0353 13.4254 9.46702 13.8571 9.99958 13.8571C10.5321 13.8571 10.9639 13.4254 10.9639 12.8928C10.9639 12.3603 10.5321 11.9285 9.99958 11.9285Z"/>
</mask>
<path fill-rule="evenodd" clip-rule="evenodd" d="M10 16C13.3137 16 16 13.3137 16 10C16 6.68629 13.3137 4 10 4C6.68629 4 4 6.68629 4 10C4 13.3137 6.68629 16 10 16ZM18 10C18 14.4183 14.4183 18 10 18C5.58172 18 2 14.4183 2 10C2 5.58172 5.58172 2 10 2C14.4183 2 18 5.58172 18 10Z"/>
<path fill-rule="evenodd" clip-rule="evenodd" d="M10 11C9.44772 11 9 10.5523 9 10V7.10714C9 6.55485 9.44772 6.10714 10 6.10714C10.5523 6.10714 11 6.55485 11 7.10714V10C11 10.5523 10.5523 11 10 11Z"/>
<path d="M9.99958 11.9285C9.46702 11.9285 9.0353 12.3603 9.0353 12.8928C9.0353 13.4254 9.46702 13.8571 9.99958 13.8571C10.5321 13.8571 10.9639 13.4254 10.9639 12.8928C10.9639 12.3603 10.5321 11.9285 9.99958 11.9285Z"/>
<path d="M14 10C14 12.2091 12.2091 14 10 14V18C14.4183 18 18 14.4183 18 10H14ZM10 6C12.2091 6 14 7.79086 14 10H18C18 5.58172 14.4183 2 10 2V6ZM6 10C6 7.79086 7.79086 6 10 6V2C5.58172 2 2 5.58172 2 10H6ZM10 14C7.79086 14 6 12.2091 6 10H2C2 14.4183 5.58172 18 10 18V14ZM10 20C15.5228 20 20 15.5228 20 10H16C16 13.3137 13.3137 16 10 16V20ZM0 10C0 15.5228 4.47715 20 10 20V16C6.68629 16 4 13.3137 4 10H0ZM10 0C4.47715 0 0 4.47715 0 10H4C4 6.68629 6.68629 4 10 4V0ZM20 10C20 4.47715 15.5228 0 10 0V4C13.3137 4 16 6.68629 16 10H20ZM7 10C7 11.6569 8.34315 13 10 13V9C10.5523 9 11 9.44771 11 10H7ZM7 7.10714V10H11V7.10714H7ZM10 4.10714C8.34315 4.10714 7 5.45028 7 7.10714H11C11 7.65942 10.5523 8.10714 10 8.10714V4.10714ZM13 7.10714C13 5.45028 11.6569 4.10714 10 4.10714V8.10714C9.44772 8.10714 9 7.65942 9 7.10714H13ZM13 10V7.10714H9V10H13ZM10 13C11.6569 13 13 11.6569 13 10H9C9 9.44771 9.44772 9 10 9V13ZM11.0353 12.8928C11.0353 13.4648 10.5716 13.9285 9.99958 13.9285V9.92854C8.36245 9.92854 7.0353 11.2557 7.0353 12.8928H11.0353ZM9.99958 13.9285C9.42757 13.9285 8.96387 13.4648 8.96387 12.8928H12.9639C12.9639 11.2557 11.6367 9.92854 9.99958 9.92854V13.9285ZM8.96387 12.8928C8.96387 12.3208 9.42757 11.8571 9.99958 11.8571V15.8571C11.6367 15.8571 12.9639 14.53 12.9639 12.8928H8.96387ZM9.99958 11.8571C10.5716 11.8571 11.0353 12.3208 11.0353 12.8928H7.0353C7.0353 14.53 8.36245 15.8571 9.99958 15.8571V11.8571Z" mask="url(#path-1-inside-1_109_974)"/>
</svg>
