<svg viewBox="0 0 20 20" xmlns="http://www.w3.org/2000/svg">
<path d="M7 13C7.55228 13 8 12.5523 8 12C8 11.4477 7.55228 11 7 11C6.44772 11 6 11.4477 6 12C6 12.5523 6.44772 13 7 13Z"/>
<path d="M11.0588 12C11.0588 12.5523 10.6111 13 10.0588 13C9.50652 13 9.05881 12.5523 9.05881 12C9.05881 11.4477 9.50652 11 10.0588 11C10.6111 11 11.0588 11.4477 11.0588 12Z"/>
<path d="M13.1176 13C13.6699 13 14.1176 12.5523 14.1176 12C14.1176 11.4477 13.6699 11 13.1176 11C12.5654 11 12.1176 11.4477 12.1176 12C12.1176 12.5523 12.5654 13 13.1176 13Z"/>
<path fill-rule="evenodd" clip-rule="evenodd" d="M13 2C13.5523 2 14 2.44772 14 3V4H15C16.1046 4 17 4.89543 17 6V16C17 17.1046 16.1046 18 15 18H5C3.89543 18 3 17.1046 3 16V6C3 4.89543 3.89543 4 5 4H6V3C6 2.44772 6.44772 2 7 2C7.55228 2 8 2.44772 8 3V4H12V3C12 2.44772 12.4477 2 13 2ZM5 9V16H15V9H5ZM5 7H15V6H5V7Z"/>
</svg>
