<svg viewBox="0 0 20 20" xmlns="http://www.w3.org/2000/svg">
<path fill-rule="evenodd" clip-rule="evenodd" d="M3 5C3 4.44772 3.44772 4 4 4H8C8.55228 4 9 4.44772 9 5V9C9 9.55228 8.55228 10 8 10H4C3.44772 10 3 9.55228 3 9V5ZM5 6V8H7V6H5Z"/>
<path fill-rule="evenodd" clip-rule="evenodd" d="M11 5C11 4.44772 11.4477 4 12 4H16C16.5523 4 17 4.44772 17 5V9C17 9.55228 16.5523 10 16 10H12C11.4477 10 11 9.55228 11 9V5ZM13 6V8H15V6H13Z"/>
<path d="M3 12C3 11.4477 3.44772 11 4 11H16C16.5523 11 17 11.4477 17 12C17 12.5523 16.5523 13 16 13H4C3.44772 13 3 12.5523 3 12Z"/>
<path d="M3 15C3 14.4477 3.44772 14 4 14H16C16.5523 14 17 14.4477 17 15C17 15.5523 16.5523 16 16 16H4C3.44772 16 3 15.5523 3 15Z"/>
</svg>
