<svg viewBox="0 0 20 20" xmlns="http://www.w3.org/2000/svg">
<path d="M7 7C7 7.55228 6.55228 8 6 8C5.44772 8 5 7.55228 5 7C5 6.44772 5.44772 6 6 6C6.55228 6 7 6.44772 7 7Z"/>
<path d="M6 14C6.55228 14 7 13.5523 7 13C7 12.4477 6.55228 12 6 12C5.44772 12 5 12.4477 5 13C5 13.5523 5.44772 14 6 14Z"/>
<path fill-rule="evenodd" clip-rule="evenodd" d="M2 5C2 3.89543 2.89543 3 4 3H16C17.1046 3 18 3.89543 18 5V15C18 16.1046 17.1046 17 16 17H4C2.89543 17 2 16.1046 2 15V5ZM4 5H16V9H4V5ZM4 11V15H16V11H4Z"/>
</svg>
