<svg viewBox="0 0 20 20" xmlns="http://www.w3.org/2000/svg">
<path d="M12.5855 10.8107C13.0332 10.4873 13.134 9.86224 12.8107 9.41451C12.4873 8.96678 11.8622 8.86596 11.4145 9.18932L9.2406 10.7594L8.59827 10.2798C8.15572 9.94937 7.52912 10.0403 7.1987 10.4828C6.86829 10.9254 6.95919 11.552 7.40173 11.8824L8.6325 12.8013C8.98266 13.0627 9.46201 13.0665 9.81626 12.8107L12.5855 10.8107Z"/>
<path fill-rule="evenodd" clip-rule="evenodd" d="M10 1C9.44772 1 9 1.44772 9 2H8C7.44772 2 7 2.44772 7 3H5C3.89543 3 3 3.89543 3 5V17C3 18.1046 3.89543 19 5 19H15C16.1046 19 17 18.1046 17 17V5C17 3.89543 16.1046 3 15 3H13C13 2.44772 12.5523 2 12 2H11C11 1.44772 10.5523 1 10 1ZM5 17L5 5H15V17H5Z"/>
</svg>
