<svg viewBox="0 0 20 20" xmlns="http://www.w3.org/2000/svg">
<path fill-rule="evenodd" clip-rule="evenodd" d="M5.25664 14.2529H14.0769C13.9832 13.9487 13.8478 13.6533 13.6605 13.3938C13.2708 12.854 12.5546 12.3218 11.0661 12.3218H8.26745C6.77888 12.3218 6.06267 12.854 5.67299 13.3938C5.48566 13.6533 5.35028 13.9487 5.25664 14.2529ZM3.71585 11.981C4.60566 10.7484 6.08635 9.90805 8.26745 9.90805H11.0661C13.2472 9.90805 14.7278 10.7484 15.6176 11.981C16.4585 13.1459 16.6668 14.5143 16.6668 15.4598C16.6668 16.1263 16.1264 16.6667 15.4599 16.6667H3.87365C3.20709 16.6667 2.66675 16.1263 2.66675 15.4598C2.66675 14.5143 2.87495 13.1459 3.71585 11.981Z"/>
<path fill-rule="evenodd" clip-rule="evenodd" d="M9.66673 5.08045C9.1334 5.08045 8.70121 5.51264 8.70121 6.04597C8.70121 6.57901 9.13356 7.01149 9.66673 7.01149C10.1996 7.01149 10.6322 6.57885 10.6322 6.04597C10.6322 5.5128 10.1998 5.08045 9.66673 5.08045ZM6.28741 6.04597C6.28741 4.17954 7.8003 2.66666 9.66673 2.66666C11.5326 2.66666 13.046 4.17938 13.046 6.04597C13.046 7.91196 11.5327 9.42528 9.66673 9.42528C7.80014 9.42528 6.28741 7.9118 6.28741 6.04597Z"/>
</svg>
