<svg viewBox="0 0 20 20" xmlns="http://www.w3.org/2000/svg">
<path d="M4.99999 4.16667C5.46024 4.16667 5.83332 3.79357 5.83332 3.33333C5.83332 2.8731 5.46024 2.5 4.99999 2.5C4.69153 2.5 4.42224 2.66758 4.27815 2.91667H4.16665C3.4763 2.91667 2.91665 3.47631 2.91665 4.16667V7.91667C2.68655 7.91667 2.49803 8.10362 2.51892 8.33279C2.61579 9.39579 3.08152 10.3967 3.84243 11.1576C4.40041 11.7155 5.08741 12.1148 5.83332 12.3263V13.3333C5.83332 13.8777 6.18124 14.3407 6.66682 14.5122C6.68457 16.1654 8.0302 17.5 9.68749 17.5C11.3559 17.5 12.7083 16.1475 12.7083 14.4792V12.8125C12.7083 11.9495 13.4079 11.25 14.2708 11.25C15.1338 11.25 15.8333 11.9495 15.8333 12.8125V13.8211C15.3478 13.9927 15 14.4557 15 15C15 15.6904 15.5596 16.25 16.25 16.25C16.9404 16.25 17.5 15.6904 17.5 15C17.5 14.4557 17.1522 13.9927 16.6667 13.8211V12.8125C16.6667 11.4893 15.594 10.4167 14.2708 10.4167C12.9477 10.4167 11.875 11.4893 11.875 12.8125V14.4792C11.875 15.6873 10.8956 16.6667 9.68749 16.6667C8.49036 16.6667 7.51786 15.705 7.50024 14.5121C7.98561 14.3405 8.33332 13.8775 8.33332 13.3333V12.3263C9.07924 12.1148 9.76628 11.7155 10.3242 11.1576C11.0852 10.3967 11.5509 9.39579 11.6477 8.33279C11.6687 8.10362 11.4801 7.91667 11.25 7.91667V4.16667C11.25 3.47631 10.6904 2.91667 9.99999 2.91667H9.88849C9.74441 2.66758 9.47511 2.5 9.16666 2.5C8.70641 2.5 8.33332 2.8731 8.33332 3.33333C8.33332 3.79357 8.70641 4.16667 9.16666 4.16667C9.47511 4.16667 9.74441 3.99908 9.88849 3.75H9.99999C10.2301 3.75 10.4167 3.93655 10.4167 4.16667V7.91667H10.5039C10.2738 7.91667 10.0902 8.10413 10.0584 8.33204C9.96866 8.97525 9.67195 9.57625 9.20745 10.0408C8.64407 10.6041 7.88003 10.9206 7.08332 10.9206C6.28665 10.9206 5.52257 10.6041 4.95924 10.0408C4.4947 9.57625 4.19803 8.97525 4.10824 8.33204C4.07642 8.10413 3.89285 7.91667 3.66273 7.91667H3.74999V4.16667C3.74999 3.93655 3.93654 3.75 4.16665 3.75H4.27815C4.42224 3.99908 4.69153 4.16667 4.99999 4.16667Z"/>
<path d="M9.76139 8.29055C9.7926 8.06678 9.92191 7.85388 10.1167 7.72928V4.16662C10.1167 4.1159 10.0844 4.07274 10.0391 4.05666C9.83155 4.30675 9.51794 4.46662 9.16672 4.46662C8.54078 4.46662 8.03339 3.9592 8.03339 3.33328C8.03339 2.70736 8.54078 2.19995 9.16672 2.19995C9.52137 2.19995 9.83768 2.36296 10.0452 2.61726C10.8804 2.64115 11.5501 3.32568 11.5501 4.16662V7.68311C11.798 7.79812 11.9747 8.05173 11.9466 8.35997C11.8433 9.49255 11.3472 10.5589 10.5364 11.3697C9.99676 11.9093 9.34375 12.3097 8.63339 12.5474V13.3333C8.63339 13.9259 8.30093 14.4403 7.81297 14.7011C7.92281 15.6389 8.72021 16.3666 9.68755 16.3666C10.73 16.3666 11.5751 15.5216 11.5751 14.4791V12.8125C11.5751 11.3236 12.782 10.1166 14.2709 10.1166C15.7597 10.1166 16.9667 11.3236 16.9667 12.8125V13.6253C17.4617 13.8839 17.8001 14.4021 17.8001 15C17.8001 15.856 17.1061 16.55 16.2501 16.55C15.394 16.55 14.7001 15.856 14.7001 15C14.7001 14.4021 15.0384 13.8839 15.5334 13.6253V12.8125C15.5334 12.1152 14.9682 11.55 14.2709 11.55C13.5736 11.55 13.0084 12.1152 13.0084 12.8125V14.4791C13.0084 16.3132 11.5216 17.8 9.68755 17.8C7.93185 17.8 6.49437 16.4375 6.37476 14.7121C5.87539 14.4549 5.53339 13.9344 5.53339 13.3333V12.5474C4.82302 12.3097 4.17004 11.9093 3.63036 11.3697C2.81964 10.5589 2.32343 9.49256 2.22022 8.35997C2.19213 8.05177 2.36882 7.79813 2.61672 7.68311V4.16662C2.61672 3.32568 3.28641 2.64115 4.12157 2.61726C4.32909 2.36296 4.6454 2.19995 5.00005 2.19995C5.62599 2.19995 6.13339 2.70736 6.13339 3.33328C6.13339 3.9592 5.62599 4.46662 5.00005 4.46662C4.64883 4.46662 4.33522 4.30675 4.12762 4.05666C4.08242 4.07274 4.05005 4.1159 4.05005 4.16662V7.72926C4.24487 7.85386 4.37419 8.06677 4.40542 8.29052C4.48625 8.86949 4.75329 9.41047 5.17143 9.82861C5.67851 10.3357 6.36629 10.6206 7.08338 10.6206C7.80052 10.6206 8.48826 10.3357 8.99539 9.8286C9.41349 9.41046 9.68056 8.86949 9.76139 8.29055Z"/>
</svg>
