<svg viewBox="0 0 20 20" xmlns="http://www.w3.org/2000/svg">
<path fill-rule="evenodd" clip-rule="evenodd" d="M2.46673 8.65604C2.36523 8.43513 2.3212 8.20791 2.33298 7.97114C2.34582 7.72775 2.38717 7.51246 2.45434 7.32319C2.51601 7.14937 2.62833 6.97521 2.80176 6.80178L5.96842 3.63511C6.12564 3.4779 6.30178 3.36193 6.49786 3.28469C6.69913 3.2054 6.90075 3.16667 7.10415 3.16667C7.30764 3.16667 7.51356 3.20544 7.7232 3.2856C7.92614 3.36319 8.10474 3.47915 8.2607 3.63511L11.2399 6.61428C11.3374 6.71182 11.397 6.7961 11.4297 6.86614C11.4684 6.94901 11.4791 7.00597 11.4791 7.04167C11.4791 7.1402 11.4381 7.25004 11.3128 7.37531C11.1875 7.50057 11.0777 7.54167 10.9791 7.54167C10.8969 7.54167 10.8048 7.52128 10.7008 7.47198C10.5966 7.42265 10.4983 7.35312 10.4059 7.26072L7.93748 4.79228L3.09404 9.63572C2.88889 9.84087 2.73401 10.0789 2.63105 10.3482C2.53065 10.6108 2.47915 10.8771 2.47915 11.1458C2.47915 11.6958 2.67028 12.1747 3.0488 12.569C3.3838 12.9179 3.79942 13.1402 4.28644 13.2384C4.383 13.6708 4.58516 14.05 4.89232 14.3708C5.20467 14.697 5.58814 14.9086 6.03499 15.0064C6.13172 15.4524 6.33853 15.8379 6.65654 16.1559C6.9742 16.4736 7.35924 16.6803 7.80462 16.7772C7.90543 17.2551 8.13622 17.6666 8.4952 18.0049C8.89851 18.3849 9.36821 18.5833 9.89581 18.5833C10.1792 18.5833 10.452 18.528 10.7122 18.4176C10.9717 18.3076 11.2033 18.1503 11.4059 17.9476L18.4268 10.9268C18.755 10.5985 19.0036 10.2266 19.1696 9.8116C19.3339 9.40077 19.4166 8.97694 19.4166 8.54167C19.4166 8.10644 19.334 7.67966 19.1702 7.26275C19.0044 6.84077 18.7558 6.46474 18.4268 6.13572L14.6976 2.40656C14.3686 2.07757 13.9954 1.83179 13.5787 1.6727C13.1688 1.51616 12.7462 1.4375 12.3125 1.4375C11.8788 1.4375 11.4533 1.51614 11.0372 1.67217C10.6135 1.83104 10.2363 2.07681 9.90654 2.40656L9.70831 2.60478L9.51009 2.40656C9.1811 2.07757 8.80791 1.83179 8.39124 1.6727C7.98126 1.51616 7.5587 1.4375 7.12498 1.4375C6.69129 1.4375 6.26577 1.51614 5.8497 1.67217C5.42604 1.83104 5.04878 2.07681 4.71904 2.40656L1.5732 5.55239C1.25844 5.86716 1.01448 6.23127 0.842251 6.64313C0.669669 7.05583 0.583313 7.48794 0.583313 7.9375C0.583313 8.4154 0.676819 8.88457 0.861869 9.34349C1.04519 9.79813 1.28581 10.1923 1.58583 10.5223L1.76219 10.7163L3.00165 9.47689L2.86186 9.30216C2.70865 9.11065 2.57679 8.89559 2.46673 8.65604ZM4.34342 10.8851L7.93748 7.29105L9.28154 8.63511C9.49522 8.84879 9.73141 9.01617 9.99028 9.13384C10.2618 9.25726 10.5881 9.3125 10.9583 9.3125C11.5578 9.3125 12.0879 9.08088 12.5398 8.63661C12.9927 8.19144 13.2291 7.66361 13.2291 7.0625C13.2291 6.71742 13.1503 6.39504 12.9907 6.09987C12.8428 5.82621 12.6712 5.58284 12.4749 5.37147L10.9566 3.83441L11.1559 3.63511C11.3131 3.4779 11.4893 3.36193 11.6854 3.28469C11.8866 3.2054 12.0882 3.16667 12.2916 3.16667C12.4951 3.16667 12.7011 3.20544 12.9107 3.2856C13.1136 3.36319 13.2922 3.47915 13.4482 3.63511L17.1982 7.38511C17.3542 7.54107 17.4701 7.71968 17.5477 7.92262C17.6279 8.13225 17.6666 8.33817 17.6666 8.54167C17.6666 8.74507 17.6279 8.94669 17.5486 9.14795C17.4714 9.34403 17.3552 9.52044 17.1979 9.67765L10.1774 16.7191C10.1516 16.7449 10.1106 16.7729 10.0457 16.7979C9.97358 16.8256 9.92509 16.8333 9.89581 16.8333C9.75099 16.8333 9.66787 16.7935 9.61426 16.7399C9.56064 16.6863 9.52081 16.6032 9.52081 16.4583C9.52081 16.4218 9.52822 16.3725 9.54965 16.3082C9.56377 16.2659 9.58981 16.2221 9.63509 16.1768L12.6869 13.125L11.4583 11.8964L8.40654 14.9482C8.3539 15.0009 8.31196 15.0268 8.28213 15.0387C8.24541 15.0534 8.20097 15.0625 8.14581 15.0625C8.04978 15.0625 7.96636 15.0295 7.88509 14.9482C7.80382 14.867 7.77081 14.7835 7.77081 14.6875C7.77081 14.6394 7.78078 14.583 7.80623 14.5168C7.83123 14.4518 7.85929 14.4109 7.88509 14.3851L10.916 11.3542L9.68748 10.1256L6.6357 13.1774C6.60275 13.2103 6.56208 13.2388 6.51111 13.262C6.46698 13.2821 6.42237 13.2917 6.37498 13.2917C6.27895 13.2917 6.19553 13.2587 6.11426 13.1774C6.03298 13.0961 5.99998 13.0127 5.99998 12.9167C5.99998 12.8616 6.00907 12.805 6.02882 12.7457C6.04294 12.7034 6.06898 12.6596 6.11426 12.6143L9.1452 9.58333L7.91665 8.35478L4.86487 11.4066C4.8279 11.4435 4.78167 11.4782 4.72402 11.5097C4.68267 11.5322 4.64378 11.5417 4.60415 11.5417C4.48393 11.5417 4.40012 11.5049 4.33301 11.4378C4.26589 11.3707 4.22915 11.2869 4.22915 11.1667C4.22915 11.1117 4.23819 11.0608 4.25576 11.0125C4.26873 10.9769 4.29452 10.934 4.34342 10.8851Z"/>
</svg>
