<svg viewBox="0 0 20 20" xmlns="http://www.w3.org/2000/svg">
<path fill-rule="evenodd" clip-rule="evenodd" d="M8.69231 5.46154C8.69231 4.65426 9.34657 4 10.1538 4C10.9608 4 11.6154 4.65439 11.6154 5.46154C11.6154 6.26832 10.9606 6.92308 10.1538 6.92308C9.3467 6.92308 8.69231 6.26845 8.69231 5.46154ZM10.1538 2C8.242 2 6.69231 3.54969 6.69231 5.46154C6.69231 7.37276 8.24187 8.92308 10.1538 8.92308C12.0652 8.92308 13.6154 7.37289 13.6154 5.46154C13.6154 3.54956 12.0651 2 10.1538 2ZM14.6076 13.9576C14.9289 14.4323 15.1189 14.9927 15.2181 15.5385H5.08962C5.18883 14.9927 5.37878 14.4323 5.70006 13.9576C6.18379 13.2428 7.03227 12.6154 8.66741 12.6154H11.6403C13.2754 12.6154 14.1239 13.2428 14.6076 13.9576ZM8.66741 10.6154C6.40437 10.6154 4.91915 11.5431 4.04371 12.8367C3.21068 14.0676 3 15.5219 3 16.5385C3 17.0907 3.44772 17.5385 4 17.5385H16.3077C16.86 17.5385 17.3077 17.0907 17.3077 16.5385C17.3077 15.5219 17.097 14.0676 16.264 12.8367C15.3885 11.5431 13.9033 10.6154 11.6403 10.6154H8.66741Z"/>
</svg>
