<svg viewBox="0 0 20 20" xmlns="http://www.w3.org/2000/svg">
<path d="M13.2411 3.02949C12.7051 2.89634 12.1627 3.2229 12.0295 3.75889C11.8963 4.29488 12.2229 4.83734 12.7589 4.97049C13.1219 5.06068 13.4379 5.26414 13.6605 5.54231C13.8825 5.81989 14 6.15691 14 6.49999C14 6.84308 13.8825 7.18009 13.6605 7.45768C13.4379 7.73584 13.1219 7.93931 12.7589 8.02949C12.2229 8.16265 11.8963 8.7051 12.0295 9.24109C12.1627 9.77708 12.7051 10.1036 13.2411 9.97049C14.0223 9.77642 14.7205 9.33421 15.2222 8.70707C15.7244 8.07935 16 7.30293 16 6.49999C16 5.69705 15.7244 4.92064 15.2222 4.29292C14.7205 3.66578 14.0223 3.22357 13.2411 3.02949Z"/>
<path fill-rule="evenodd" clip-rule="evenodd" d="M7.5 2.99999C5.567 2.99999 4 4.56699 4 6.49999C4 8.43299 5.567 9.99999 7.5 9.99999C9.433 9.99999 11 8.43299 11 6.49999C11 4.56699 9.433 2.99999 7.5 2.99999ZM6 6.49999C6 5.67156 6.67157 4.99999 7.5 4.99999C8.32843 4.99999 9 5.67156 9 6.49999C9 7.32842 8.32843 7.99999 7.5 7.99999C6.67157 7.99999 6 7.32842 6 6.49999Z"/>
<path d="M4.75 11C3.68654 11 2.71589 11.5135 2.03408 12.3399C1.35679 13.1609 1 14.2396 1 15.3333V17C1 17.5523 1.44772 18 2 18C2.55228 18 3 17.5523 3 17V15.3333C3 14.6589 3.22267 14.042 3.57683 13.6127C3.92647 13.1889 4.35477 13 4.75 13H10.25C10.6452 13 11.0735 13.1889 11.4232 13.6127C11.7773 14.042 12 14.6589 12 15.3333V17C12 17.5523 12.4477 18 13 18C13.5523 18 14 17.5523 14 17V15.3333C14 14.2396 13.6432 13.1609 12.9659 12.3399C12.2841 11.5135 11.3135 11 10.25 11H4.75Z"/>
<path d="M14.0233 11.7852C14.142 11.2458 14.6754 10.9047 15.2148 11.0233C16.2561 11.2523 17.2061 11.775 17.9009 12.5384C18.5988 13.3052 18.9991 14.274 19 15.2955V17C19 17.5523 18.5523 18 18 18C17.4477 18 17 17.5523 17 17V15.2968C16.9994 14.8087 16.8098 14.311 16.4218 13.8846C16.0306 13.4547 15.4601 13.1251 14.7852 12.9767C14.2458 12.858 13.9047 12.3246 14.0233 11.7852Z"/>
</svg>
