<svg viewBox="0 0 20 20" xmlns="http://www.w3.org/2000/svg">
<path d="M2.29165 15C1.88887 15 1.54512 14.8576 1.2604 14.5729C0.975674 14.2882 0.833313 13.9444 0.833313 13.5417C0.833313 13.1389 0.975674 12.7951 1.2604 12.5104C1.54512 12.2257 1.88887 12.0833 2.29165 12.0833C2.36109 12.0833 2.43054 12.0868 2.49998 12.0938C2.56942 12.1007 2.6597 12.1181 2.77081 12.1458L6.93748 7.97917C6.9097 7.86806 6.89234 7.77778 6.8854 7.70833C6.87845 7.63889 6.87498 7.56944 6.87498 7.5C6.87498 7.09722 7.01734 6.75347 7.30206 6.46875C7.58679 6.18403 7.93054 6.04167 8.33331 6.04167C8.73609 6.04167 9.07984 6.18403 9.36456 6.46875C9.64929 6.75347 9.79165 7.09722 9.79165 7.5C9.79165 7.52778 9.77081 7.6875 9.72915 7.97917L12.0208 10.2708C12.1319 10.2431 12.2222 10.2257 12.2916 10.2187C12.3611 10.2118 12.4305 10.2083 12.5 10.2083C12.5694 10.2083 12.6389 10.2118 12.7083 10.2187C12.7778 10.2257 12.868 10.2431 12.9791 10.2708L16.3125 6.9375C16.2847 6.82639 16.2673 6.73611 16.2604 6.66667C16.2535 6.59722 16.25 6.52778 16.25 6.45833C16.25 6.05556 16.3923 5.71181 16.6771 5.42708C16.9618 5.14236 17.3055 5 17.7083 5C18.1111 5 18.4548 5.14236 18.7396 5.42708C19.0243 5.71181 19.1666 6.05556 19.1666 6.45833C19.1666 6.86111 19.0243 7.20486 18.7396 7.48958C18.4548 7.77431 18.1111 7.91667 17.7083 7.91667C17.6389 7.91667 17.5694 7.91319 17.5 7.90625C17.4305 7.89931 17.3403 7.88194 17.2291 7.85417L13.8958 11.1875C13.9236 11.2986 13.941 11.3889 13.9479 11.4583C13.9548 11.5278 13.9583 11.5972 13.9583 11.6667C13.9583 12.0694 13.816 12.4132 13.5312 12.6979C13.2465 12.9826 12.9028 13.125 12.5 13.125C12.0972 13.125 11.7535 12.9826 11.4687 12.6979C11.184 12.4132 11.0416 12.0694 11.0416 11.6667C11.0416 11.5972 11.0451 11.5278 11.0521 11.4583C11.059 11.3889 11.0764 11.2986 11.1041 11.1875L8.81248 8.89583C8.70137 8.92361 8.61109 8.94097 8.54165 8.94792C8.4722 8.95486 8.40276 8.95833 8.33331 8.95833C8.30554 8.95833 8.14581 8.9375 7.85415 8.89583L3.68748 13.0625C3.71526 13.1736 3.73262 13.2639 3.73956 13.3333C3.74651 13.4028 3.74998 13.4722 3.74998 13.5417C3.74998 13.9444 3.60762 14.2882 3.3229 14.5729C3.03817 14.8576 2.69442 15 2.29165 15Z"/>
</svg>
