<svg viewBox="0 0 20 20" xmlns="http://www.w3.org/2000/svg">
<path fill-rule="evenodd" clip-rule="evenodd" d="M1.15002 4.00002C1.15002 3.53058 1.53058 3.15002 2.00002 3.15002H12.9091C13.3786 3.15002 13.7591 3.53058 13.7591 4.00002V6.76114H15.8182C16.0426 6.76114 16.2579 6.84988 16.4171 7.008L18.599 9.17467C18.7597 9.33424 18.85 9.55134 18.85 9.7778V13.3889C18.85 13.8584 18.4695 14.2389 18 14.2389H17.2177C17.3325 14.5351 17.3955 14.8572 17.3955 15.1945C17.3955 16.6667 16.1953 17.85 14.7273 17.85C13.2593 17.85 12.0591 16.6667 12.0591 15.1945C12.0591 14.8572 12.1221 14.5351 12.2369 14.2389H7.76318C7.87795 14.5351 7.94093 14.8572 7.94093 15.1945C7.94093 16.6667 6.74075 17.85 5.27275 17.85C3.80475 17.85 2.60457 16.6667 2.60457 15.1945C2.60457 14.8572 2.66756 14.5351 2.78232 14.2389H2.00002C1.53058 14.2389 1.15002 13.8584 1.15002 13.3889V4.00002ZM12.0591 12.5389V4.85002H2.85002V12.5389H12.0591ZM13.7591 12.5389V8.46114H15.4679L17.15 10.1316V12.5389H13.7591ZM5.27275 14.2389C4.73245 14.2389 4.30457 14.6723 4.30457 15.1945C4.30457 15.7166 4.73245 16.15 5.27275 16.15C5.81306 16.15 6.24093 15.7166 6.24093 15.1945C6.24093 14.6723 5.81306 14.2389 5.27275 14.2389ZM14.7273 14.2389C14.187 14.2389 13.7591 14.6723 13.7591 15.1945C13.7591 15.7166 14.187 16.15 14.7273 16.15C15.2676 16.15 15.6955 15.7166 15.6955 15.1945C15.6955 14.6723 15.2676 14.2389 14.7273 14.2389Z"/>
</svg>
