<svg viewBox="0 0 20 20" xmlns="http://www.w3.org/2000/svg">
<path fill-rule="evenodd" clip-rule="evenodd" d="M6.16663 9.39996C6.16663 7.61424 7.61424 6.16663 9.39996 6.16663C11.1857 6.16663 12.6333 7.61424 12.6333 9.39996C12.6333 9.99035 12.4751 10.5438 12.1987 11.0202L13.5892 12.4107C13.9146 12.7361 13.9146 13.2637 13.5892 13.5892C13.2637 13.9146 12.7361 13.9146 12.4107 13.5892L11.0202 12.1987C10.5438 12.4751 9.99035 12.6333 9.39996 12.6333C7.61424 12.6333 6.16663 11.1857 6.16663 9.39996ZM9.39996 7.83329C8.53471 7.83329 7.83329 8.53471 7.83329 9.39996C7.83329 10.2652 8.53471 10.9666 9.39996 10.9666C10.2652 10.9666 10.9666 10.2652 10.9666 9.39996C10.9666 8.53471 10.2652 7.83329 9.39996 7.83329Z"/>
<path fill-rule="evenodd" clip-rule="evenodd" d="M2 13L2 11C1.44771 11 1 10.5523 1 10C1 9.44771 1.44772 9 2 9L2 7C1.44771 7 1 6.55228 1 6C1 5.44772 1.44772 5 2 5V2C2 1.44772 2.44772 1 3 1H17C17.5523 1 18 1.44772 18 2V18C18 18.5523 17.5523 19 17 19H3C2.44772 19 2 18.5523 2 18L2 15C1.44771 15 1 14.5523 1 14C1 13.4477 1.44772 13 2 13ZM4 5V3H16V17H4L4 15C4.55228 15 5 14.5523 5 14C5 13.4477 4.55228 13 4 13L4 11C4.55228 11 5 10.5523 5 10C5 9.44772 4.55228 9 4 9L4 7C4.55228 7 5 6.55228 5 6C5 5.44772 4.55228 5 4 5Z"/>
</svg>
