<svg viewBox="0 0 20 20" xmlns="http://www.w3.org/2000/svg">
<path d="M9.99995 1C10.5522 1 11 1.44772 11 2V16H14C14.5522 16 15 16.4477 15 17C15 17.5523 14.5522 18 14 18H5.99995C5.44767 18 4.99995 17.5523 4.99995 17C4.99995 16.4477 5.44767 16 5.99995 16H8.99995V2C8.99995 1.44772 9.44767 1 9.99995 1Z"/>
<path fill-rule="evenodd" clip-rule="evenodd" d="M12 4C12 3.44772 12.4477 3 13 3H16.6279C16.8958 3 17.1525 3.10752 17.3405 3.29847L19.3093 5.29847C19.6925 5.68768 19.6925 6.31232 19.3093 6.70154L17.3405 8.70154C17.1525 8.89248 16.8958 9 16.6279 9H13C12.4477 9 12 8.55228 12 8V4ZM14 7V5H16.209L17.1935 6L16.209 7H14Z"/>
<path fill-rule="evenodd" clip-rule="evenodd" d="M7.99995 12C7.99995 12.5523 7.55224 13 6.99995 13L2.82251 13C2.51393 13 2.22264 12.8575 2.03318 12.614L0.477514 10.614C0.196623 10.2528 0.196623 9.74715 0.477514 9.38603L2.03318 7.38603C2.22264 7.14246 2.51393 7 2.82251 7L6.99995 7C7.55224 7 7.99995 7.44771 7.99995 8L7.99995 12ZM3.31157 9L5.99995 9L5.99995 11L3.31157 11L2.53374 10L3.31157 9Z"/>
</svg>
