<svg viewBox="0 0 20 20" xmlns="http://www.w3.org/2000/svg">
<path d="M2.77783 10.1111C2.77783 5.63147 6.4093 2 10.8889 2C15.3686 2 19.0001 5.63147 19.0001 10.1111C19.0001 14.5908 15.3686 18.2222 10.8889 18.2222C9.96998 18.2222 9.09286 18.0833 8.26444 17.798C7.74227 17.6181 7.46477 17.049 7.64463 16.5268C7.8245 16.0046 8.39361 15.7271 8.91579 15.907C9.51861 16.1146 10.174 16.2222 10.8889 16.2222C14.264 16.2222 17.0001 13.4862 17.0001 10.1111C17.0001 6.73604 14.264 4 10.8889 4C7.51387 4 4.77783 6.73604 4.77783 10.1111C4.77783 11.1204 5.02174 12.0699 5.45302 12.9066L6.50128 11.3342C6.80764 10.8747 7.4285 10.7505 7.88803 11.0568C8.34756 11.3632 8.47174 11.9841 8.16538 12.4436L6.38761 15.1103C6.20214 15.3885 5.88991 15.5556 5.55556 15.5556H2C1.44772 15.5556 1 15.1079 1 14.5556C1 14.0033 1.44772 13.5556 2 13.5556H3.54366C3.05219 12.5091 2.77783 11.3409 2.77783 10.1111Z"/>
<path d="M9.99999 5.55554C9.4477 5.55554 8.99999 6.00326 8.99999 6.55554V10.1111C8.99999 10.6634 9.4477 11.1111 9.99999 11.1111H13.5555C14.1078 11.1111 14.5555 10.6634 14.5555 10.1111C14.5555 9.55881 14.1078 9.1111 13.5555 9.1111H11V6.55554C11 6.00326 10.5523 5.55554 9.99999 5.55554Z"/>
</svg>
