<svg viewBox="0 0 20 20" xmlns="http://www.w3.org/2000/svg">
<path d="M3.99998 4.84998C3.36485 4.84998 2.84998 5.36485 2.84998 5.99998C2.84998 6.6351 3.36485 7.14998 3.99998 7.14998H4.00998C4.6451 7.14998 5.15998 6.6351 5.15998 5.99998C5.15998 5.36485 4.6451 4.84998 4.00998 4.84998H3.99998Z"/>
<path d="M6.99998 4.99998C6.44769 4.99998 5.99998 5.44769 5.99998 5.99998C5.99998 6.55226 6.44769 6.99998 6.99998 6.99998H16C16.5523 6.99998 17 6.55226 17 5.99998C17 5.44769 16.5523 4.99998 16 4.99998H6.99998Z"/>
<path d="M6.99998 8.99998C6.44769 8.99998 5.99998 9.44769 5.99998 9.99998C5.99998 10.5523 6.44769 11 6.99998 11H16C16.5523 11 17 10.5523 17 9.99998C17 9.44769 16.5523 8.99998 16 8.99998H6.99998Z"/>
<path d="M5.99998 14C5.99998 13.4477 6.44769 13 6.99998 13H16C16.5523 13 17 13.4477 17 14C17 14.5523 16.5523 15 16 15H6.99998C6.44769 15 5.99998 14.5523 5.99998 14Z"/>
<path d="M2.84998 9.99998C2.84998 9.36485 3.36485 8.84998 3.99998 8.84998H4.00998C4.6451 8.84998 5.15998 9.36485 5.15998 9.99998C5.15998 10.6351 4.6451 11.15 4.00998 11.15H3.99998C3.36485 11.15 2.84998 10.6351 2.84998 9.99998Z"/>
<path d="M3.99998 12.85C3.36485 12.85 2.84998 13.3648 2.84998 14C2.84998 14.6351 3.36485 15.15 3.99998 15.15H4.00998C4.6451 15.15 5.15998 14.6351 5.15998 14C5.15998 13.3648 4.6451 12.85 4.00998 12.85H3.99998Z"/>
</svg>
