<svg viewBox="0 0 20 20" xmlns="http://www.w3.org/2000/svg">
<path d="M9.23109 6.18559C8.85032 5.80483 8.23306 5.80485 7.85228 6.18558L6.87502 7.16283L6.73112 7.01893C6.35036 6.63817 5.73302 6.63817 5.35226 7.01893C4.9715 7.39969 4.97151 8.01703 5.35227 8.39779L6.18559 9.23109C6.56635 9.61186 7.1837 9.61186 7.56446 9.23109L9.2311 7.56445C9.61186 7.18369 9.61186 6.56635 9.23109 6.18559Z"/>
<path d="M11.0417 6.73336C10.5032 6.73336 10.0667 7.16988 10.0667 7.70836C10.0667 8.24684 10.5032 8.68336 11.0417 8.68336H13.9584C14.4968 8.68336 14.9334 8.24684 14.9334 7.70836C14.9334 7.16988 14.4968 6.73336 13.9584 6.73336H11.0417Z"/>
<path d="M9.2311 10.769C8.85032 10.3882 8.23306 10.3882 7.85227 10.7689L6.87501 11.7462L6.7311 11.6023C6.35034 11.2215 5.73301 11.2215 5.35226 11.6023C4.97151 11.9831 4.97151 12.6003 5.35226 12.9811L6.1856 13.8144C6.56635 14.1952 7.1837 14.1952 7.56446 13.8144L9.2311 12.1478C9.61186 11.767 9.61186 11.1497 9.2311 10.769Z"/>
<path d="M11.0418 11.3167C10.5032 11.3167 10.0668 11.7533 10.0668 12.2917C10.0668 12.8301 10.5032 13.2667 11.0418 13.2667H13.9583C14.4969 13.2667 14.9333 12.8301 14.9333 12.2917C14.9333 11.7533 14.4969 11.3167 13.9583 11.3167H11.0418Z"/>
<path fill-rule="evenodd" clip-rule="evenodd" d="M4.37502 2.15002C3.14619 2.15002 2.15002 3.14619 2.15002 4.37502V15.625C2.15002 16.8538 3.14619 17.85 4.37502 17.85H15.625C16.8538 17.85 17.85 16.8538 17.85 15.625V4.37502C17.85 3.14619 16.8538 2.15002 15.625 2.15002H4.37502ZM4.10002 4.37502C4.10002 4.22315 4.22315 4.10002 4.37502 4.10002H15.625C15.7769 4.10002 15.9 4.22315 15.9 4.37502V15.625C15.9 15.7769 15.7769 15.9 15.625 15.9H4.37502C4.22315 15.9 4.10002 15.7769 4.10002 15.625V4.37502Z"/>
</svg>
