<svg viewBox="0 0 20 20" xmlns="http://www.w3.org/2000/svg">
<path d="M6.88889 7H13.1111C13.3174 7 13.5152 6.91571 13.6611 6.76568C13.8069 6.61565 13.8889 6.41217 13.8889 6.2C13.8889 5.98783 13.8069 5.78434 13.6611 5.63431C13.5152 5.48429 13.3174 5.4 13.1111 5.4H6.88889C6.68261 5.4 6.48478 5.48429 6.33892 5.63431C6.19306 5.78434 6.11111 5.98783 6.11111 6.2C6.11111 6.41217 6.19306 6.61565 6.33892 6.76568C6.48478 6.91571 6.68261 7 6.88889 7ZM6.88889 10.2H13.1111C13.3174 10.2 13.5152 10.1157 13.6611 9.96568C13.8069 9.81566 13.8889 9.61217 13.8889 9.4C13.8889 9.18783 13.8069 8.98434 13.6611 8.83431C13.5152 8.68429 13.3174 8.6 13.1111 8.6H6.88889C6.68261 8.6 6.48478 8.68429 6.33892 8.83431C6.19306 8.98434 6.11111 9.18783 6.11111 9.4C6.11111 9.61217 6.19306 9.81566 6.33892 9.96568C6.48478 10.1157 6.68261 10.2 6.88889 10.2ZM16.2222 2H3.77778C3.5715 2 3.37367 2.08429 3.22781 2.23431C3.08194 2.38434 3 2.58783 3 2.8V17.2C3 17.3486 3.04022 17.4942 3.11616 17.6206C3.1921 17.747 3.30075 17.8491 3.42994 17.9155C3.55914 17.982 3.70377 18.0101 3.84763 17.9968C3.99149 17.9834 4.12889 17.9291 4.24444 17.84L5.85444 16.6L7.45667 17.84C7.5913 17.9439 7.75505 18 7.92333 18C8.09162 18 8.25537 17.9439 8.39 17.84L10 16.6L11.61 17.84C11.7446 17.9439 11.9084 18 12.0767 18C12.245 18 12.4087 17.9439 12.5433 17.84L14.1456 16.6L15.7556 17.84C15.8717 17.929 16.0096 17.9829 16.1539 17.9956C16.2982 18.0084 16.4431 17.9794 16.5722 17.912C16.7005 17.8455 16.8084 17.7438 16.8839 17.6181C16.9594 17.4925 16.9996 17.3477 17 17.2V2.8C17 2.58783 16.9181 2.38434 16.7722 2.23431C16.6263 2.08429 16.4285 2 16.2222 2ZM15.4444 15.6L14.6122 14.96C14.4776 14.8561 14.3138 14.8 14.1456 14.8C13.9773 14.8 13.8135 14.8561 13.6789 14.96L12.0767 16.2L10.4667 14.96C10.332 14.8561 10.1683 14.8 10 14.8C9.83171 14.8 9.66796 14.8561 9.53333 14.96L7.92333 16.2L6.32111 14.96C6.18648 14.8561 6.02273 14.8 5.85444 14.8C5.68616 14.8 5.52241 14.8561 5.38778 14.96L4.55556 15.6V3.6H15.4444V15.6Z"/>
</svg>
