<svg viewBox="0 0 20 20" xmlns="http://www.w3.org/2000/svg">
<path d="M7 11C7 10.4477 7.44772 10 8 10H9V9C9 8.44772 9.44772 8 10 8C10.5523 8 11 8.44772 11 9V10H12C12.5523 10 13 10.4477 13 11C13 11.5523 12.5523 12 12 12H11V13C11 13.5523 10.5523 14 10 14C9.44772 14 9 13.5523 9 13V12H8C7.44772 12 7 11.5523 7 11Z"/>
<path fill-rule="evenodd" clip-rule="evenodd" d="M10 1C9.44772 1 9 1.44772 9 2H7C6.44772 2 6 2.44772 6 3H5C3.89543 3 3 3.89543 3 5V17C3 18.1046 3.89543 19 5 19H15C16.1046 19 17 18.1046 17 17V5C17 3.89543 16.1046 3 15 3H14C14 2.44772 13.5523 2 13 2H11C11 1.44772 10.5523 1 10 1ZM5 17H15V5H5L5 17Z"/>
</svg>
