<svg viewBox="0 0 20 20" xmlns="http://www.w3.org/2000/svg">
<path fill-rule="evenodd" clip-rule="evenodd" d="M13.557 4.16579C14.8147 4.16579 15.8342 5.18533 15.8342 6.44299C15.8342 7.70065 14.8147 8.72019 13.557 8.72019C12.2993 8.72019 11.2798 7.70065 11.2798 6.44299C11.2798 5.18533 12.2993 4.16579 13.557 4.16579ZM13.9456 6.44299C13.9456 6.22837 13.7716 6.05439 13.557 6.05439C13.3424 6.05439 13.1684 6.22837 13.1684 6.44299C13.1684 6.65761 13.3424 6.83159 13.557 6.83159C13.7716 6.83159 13.9456 6.65761 13.9456 6.44299Z"/>
<path fill-rule="evenodd" clip-rule="evenodd" d="M15.7785 1.5C17.2815 1.5 18.5 2.71846 18.5 4.2215V9.55309C18.5 9.80353 18.4005 10.0437 18.2234 10.2208L10.8454 17.5988C9.64382 18.8004 7.69561 18.8004 6.494 17.5988L2.40121 13.506C1.1996 12.3044 1.1996 10.3562 2.40121 9.15456L9.77919 1.77658C9.95628 1.59949 10.1965 1.5 10.4469 1.5H15.7785ZM16.6114 4.2215C16.6114 3.7615 16.2385 3.3886 15.7785 3.3886H10.8381L3.73665 10.49C3.27258 10.9541 3.27258 11.7065 3.73665 12.1706L7.82944 16.2633C8.29351 16.7274 9.04592 16.7274 9.51 16.2633L16.6114 9.16194V4.2215Z"/>
</svg>
