<svg viewBox="0 0 20 20" xmlns="http://www.w3.org/2000/svg">
<path fill-rule="evenodd" clip-rule="evenodd" d="M9.38335 5.94995H7.95001V7.19995H6.70001V8.63328H7.95001V9.88328H9.38335V8.63328H10.6333V7.19995H9.38335V5.94995Z"/>
<path d="M6.5 12C6.22385 12 6 12.2239 6 12.5C6 12.7761 6.22385 13 6.5 13H13.5C13.7761 13 14 12.7761 14 12.5C14 12.2239 13.7761 12 13.5 12H6.5Z"/>
<path d="M6 14.5C6 14.2239 6.19587 14 6.4375 14H12.5625C12.8041 14 13 14.2239 13 14.5C13 14.7761 12.8041 15 12.5625 15H6.4375C6.19587 15 6 14.7761 6 14.5Z"/>
<path fill-rule="evenodd" clip-rule="evenodd" d="M8.33333 1.26672C7.55998 1.26672 6.91093 1.79874 6.73215 2.51672H5.41666C4.50537 2.51672 3.76666 3.25546 3.76666 4.16672V17.0834C3.76666 17.9947 4.50537 18.7334 5.41666 18.7334H14.5833C15.4946 18.7334 16.2333 17.9947 16.2333 17.0834V4.16672C16.2333 3.25546 15.4946 2.51672 14.5833 2.51672H13.2678C13.0891 1.79874 12.44 1.26672 11.6667 1.26672H8.33333ZM11.6667 5.40006C12.44 5.40006 13.0891 4.86806 13.2678 4.15006H14.5833C14.5925 4.15006 14.6 4.15752 14.6 4.16672V17.0834C14.6 17.0926 14.5925 17.1001 14.5833 17.1001H5.41666C5.40745 17.1001 5.4 17.0926 5.4 17.0834V4.16672C5.4 4.15752 5.40746 4.15006 5.41666 4.15006H6.73214C6.91092 4.86806 7.55998 5.40006 8.33333 5.40006H11.6667ZM8.31666 2.91672C8.31666 2.90752 8.32412 2.90006 8.33333 2.90006H11.6667C11.6759 2.90006 11.6833 2.90752 11.6833 2.91672V3.75006C11.6833 3.75926 11.6759 3.76672 11.6667 3.76672H8.33333C8.32412 3.76672 8.31666 3.75926 8.31666 3.75006V2.91672Z"/>
</svg>
