<svg viewBox="0 0 20 20" xmlns="http://www.w3.org/2000/svg">
<path fill-rule="evenodd" clip-rule="evenodd" d="M3.5643 4.43871C3.50212 4.90121 3.5 5.52892 3.5 6.5L3.5 16.1126L5 15.6126L7.5 16.4459L10 15.6126L11.5 16.1126V5C11.5 4.4632 11.6208 3.95463 11.8368 3.50001L6.5 3.5C5.52892 3.5 4.90121 3.50213 4.4387 3.56431C4.00496 3.62263 3.86901 3.71677 3.79289 3.7929C3.71677 3.86902 3.62262 4.00497 3.5643 4.43871ZM15 3.50001C14.1716 3.50001 13.5 4.17158 13.5 5V6.5L16.5 6.5V5C16.5 4.17158 15.8284 3.50001 15 3.50001ZM13.5 8.5L16.7857 8.5C16.797 8.5 16.8102 8.50013 16.825 8.50028C16.9623 8.50169 17.2419 8.50455 17.4954 8.41582C17.9263 8.26505 18.2651 7.92629 18.4158 7.49541C18.5045 7.24186 18.5017 6.9623 18.5003 6.82504C18.5001 6.8102 18.5 6.79702 18.5 6.78571V5C18.5 3.06701 16.933 1.5 15 1.50001L6.43419 1.5C5.54769 1.49995 4.78387 1.49991 4.17221 1.58214C3.51669 1.67028 2.88834 1.86902 2.37868 2.37868C1.86901 2.88835 1.67027 3.5167 1.58214 4.17221C1.4999 4.78387 1.49995 5.54769 1.49999 6.43417L1.5 18.8874L5 17.7208L7.5 18.5541L10 17.7208L13.5 18.8874L13.5 8.5Z"/>
<path fill-rule="evenodd" clip-rule="evenodd" d="M4.83333 5.83333C4.83333 5.28105 5.28105 4.83333 5.83333 4.83333L9.16666 4.83333C9.71895 4.83333 10.1667 5.28105 10.1667 5.83333C10.1667 6.38561 9.71895 6.83333 9.16666 6.83333L5.83333 6.83333C5.28105 6.83333 4.83333 6.38562 4.83333 5.83333Z"/>
<path fill-rule="evenodd" clip-rule="evenodd" d="M7.66666 9.16666C7.66666 9.71895 7.21895 10.1667 6.66666 10.1667H5.83333C5.28105 10.1667 4.83333 9.71895 4.83333 9.16666C4.83333 8.61438 5.28105 8.16666 5.83333 8.16666H6.66666C7.21895 8.16666 7.66666 8.61438 7.66666 9.16666Z"/>
<path fill-rule="evenodd" clip-rule="evenodd" d="M4.83333 12.5C4.83333 11.9477 5.28105 11.5 5.83333 11.5H8.33333C8.88562 11.5 9.33333 11.9477 9.33333 12.5C9.33333 13.0523 8.88562 13.5 8.33333 13.5H5.83333C5.28105 13.5 4.83333 13.0523 4.83333 12.5Z"/>
</svg>
