<svg viewBox="0 0 20 20" xmlns="http://www.w3.org/2000/svg">
<g clip-path="url(#clip0_2043_4735)">
<path fill-rule="evenodd" clip-rule="evenodd" d="M10.0114 19.0833C15.0227 19.0771 19.0833 15.0128 19.0833 10C19.0833 4.98341 15.0165 0.916626 9.99996 0.916626C4.98337 0.916626 0.916626 4.98337 0.916626 9.99996C0.916626 15.0127 4.97719 19.0771 9.98852 19.0833C9.99233 19.0833 9.99614 19.0834 9.99996 19.0834C10.0038 19.0834 10.0076 19.0833 10.0114 19.0833ZM8.29505 2.60904C5.16445 3.32826 2.77373 5.98536 2.45324 9.25H5.9521C6.13222 6.86178 6.94411 4.57084 8.29505 2.60904ZM11.7049 2.60904C13.0558 4.57084 13.8677 6.86178 14.0478 9.25H17.5467C17.2262 5.98536 14.8355 3.32826 11.7049 2.60904ZM12.543 9.25C12.3439 6.90456 11.4589 4.66946 9.99996 2.8239C8.54097 4.66946 7.65606 6.90456 7.4569 9.25H12.543ZM7.45689 10.75H12.543C12.3439 13.0955 11.459 15.3306 9.99996 17.1762C8.54095 15.3306 7.65604 13.0955 7.45689 10.75ZM5.9521 10.75H2.45325C2.77377 14.0146 5.16441 16.6716 8.29492 17.3908C6.94405 15.4291 6.13219 13.1382 5.9521 10.75ZM11.705 17.3908C13.0559 15.4291 13.8677 13.1382 14.0478 10.75H17.5467C17.2262 14.0146 14.8355 16.6716 11.705 17.3908Z"/>
</g>
<defs>
<clipPath id="clip0_2043_4735">
<rect width="20" height="20" fill="white"/>
</clipPath>
</defs>
</svg>
