<svg viewBox="0 0 20 20" xmlns="http://www.w3.org/2000/svg">
<path fill-rule="evenodd" clip-rule="evenodd" d="M12.1213 2.20711C10.9497 1.03554 9.05019 1.03554 7.87862 2.20711L7.82837 2.25736C7.64083 2.4449 7.38648 2.55026 7.12126 2.55026H7.05019C5.39334 2.55026 4.05019 3.8934 4.05019 5.55025V5.62132C4.05019 5.88654 3.94484 6.14089 3.7573 6.32843L3.70705 6.37868C2.53548 7.55025 2.53548 9.44975 3.70705 10.6213L3.7573 10.6716C3.94484 10.8591 4.05019 11.1135 4.05019 11.3787V11.4497C4.05019 12.7471 4.87368 13.8521 6.02645 14.2705C6.00916 14.3442 6 14.421 6 14.5V17.1126C6 18.4777 7.33739 19.4416 8.63246 19.0099L10 18.5541L11.3675 19.0099C12.6626 19.4416 14 18.4777 14 17.1126V14.5C14 14.421 13.9908 14.3442 13.9735 14.2705C15.1263 13.852 15.9497 12.747 15.9497 11.4498V11.3787C15.9497 11.1135 16.055 10.8591 16.2426 10.6716L16.2928 10.6213C17.4644 9.44975 17.4644 7.55026 16.2928 6.37868L16.2426 6.32843C16.055 6.14089 15.9497 5.88654 15.9497 5.62132V5.55026C15.9497 3.8934 14.6065 2.55026 12.9497 2.55026H12.8786C12.6134 2.55026 12.3591 2.4449 12.1715 2.25736L12.1213 2.20711ZM12 14.9077C10.8633 15.9262 9.1367 15.9262 8 14.9078V17.1126L9.36754 16.6567C9.77808 16.5199 10.2219 16.5199 10.6325 16.6567L12 17.1126V14.9077ZM9.29284 3.62132C9.68336 3.2308 10.3165 3.2308 10.707 3.62132L10.7573 3.67158C11.3199 4.23419 12.083 4.55026 12.8786 4.55026H12.9497C13.502 4.55026 13.9497 4.99797 13.9497 5.55026V5.62132C13.9497 6.41697 14.2658 7.18003 14.8284 7.74264L14.8786 7.7929C15.2691 8.18342 15.2691 8.81659 14.8786 9.20711L14.8284 9.25736C14.2658 9.81997 13.9497 10.583 13.9497 11.3787V11.4498C13.9497 12.002 13.502 12.4498 12.9497 12.4498H12.8786C12.083 12.4498 11.3199 12.7658 10.7573 13.3284L10.707 13.3787C10.3165 13.7692 9.68336 13.7692 9.29284 13.3787L9.24258 13.3284C8.67998 12.7658 7.91691 12.4498 7.12126 12.4498H7.05019C6.49791 12.4498 6.05019 12.002 6.05019 11.4497V11.3787C6.05019 10.583 5.73412 9.81997 5.17151 9.25736L5.12126 9.20711C4.73074 8.81659 4.73074 8.18342 5.12126 7.7929L5.17152 7.74264C5.73412 7.18003 6.05019 6.41697 6.05019 5.62132V5.55025C6.05019 4.99797 6.49791 4.55026 7.05019 4.55026H7.12126C7.91691 4.55026 8.67997 4.23418 9.24258 3.67158L9.29284 3.62132Z"/>
</svg>
