<svg viewBox="0 0 20 20" xmlns="http://www.w3.org/2000/svg">
<path fill-rule="evenodd" clip-rule="evenodd" d="M3 10C3 6.13401 6.13401 3 10 3C13.866 3 17 6.13401 17 10C17 13.866 13.866 17 10 17C6.13401 17 3 13.866 3 10ZM10 5C7.23858 5 5 7.23858 5 10C5 12.7614 7.23858 15 10 15C12.7614 15 15 12.7614 15 10C15 7.23858 12.7614 5 10 5Z"/>
<path fill-rule="evenodd" clip-rule="evenodd" d="M10 6C10.5523 6 11 6.44772 11 7V10C11 10.5523 10.5523 11 10 11H7C6.44772 11 6 10.5523 6 10C6 9.44772 6.44772 9 7 9H9V7C9 6.44772 9.44772 6 10 6Z"/>
</svg>
