<svg viewBox="0 0 20 20" xmlns="http://www.w3.org/2000/svg">
<path d="M7 12.5C6.44772 12.5 6 12.9477 6 13.5C6 14.0523 6.44772 14.5 7 14.5H13C13.5523 14.5 14 14.0523 14 13.5C14 12.9477 13.5523 12.5 13 12.5H7Z"/>
<path fill-rule="evenodd" clip-rule="evenodd" d="M3 6C3 4.34315 4.34315 3 6 3H12.25C12.5605 3 12.8533 3.1442 13.0426 3.39029L16.7926 8.26529C16.9271 8.4401 17 8.65446 17 8.875V15C17 16.6569 15.6569 18 14 18H6C4.34315 18 3 16.6569 3 15V6ZM6 5H11V9C11 9.55228 11.4477 10 12 10H15V15C15 15.5523 14.5523 16 14 16H6C5.44772 16 5 15.5523 5 15V6C5 5.44772 5.44772 5 6 5ZM13 8H14.0653L13 6.61512V8Z"/>
</svg>
