<svg viewBox="0 0 20 20" xmlns="http://www.w3.org/2000/svg">
<path fill-rule="evenodd" clip-rule="evenodd" d="M17.7807 4.37505C17.8573 4.47068 17.9168 4.58069 17.9543 4.70039C17.9864 4.80242 18.0013 4.90777 17.9999 5.01238V15C17.9999 15.5523 17.5522 16 16.9999 16H2.99995C2.44766 16 1.99995 15.5522 1.99995 15V5.0108C1.99869 4.90265 2.01491 4.79383 2.04929 4.68884C2.08847 4.56905 2.14966 4.45922 2.22808 4.36413C2.31829 4.25443 2.42767 4.16855 2.54775 4.10781C2.69207 4.0348 2.85184 3.9981 3.01239 3.99997H16.9858C17.0125 3.99961 17.0392 4.00033 17.0658 4.0021C17.3548 4.02089 17.6103 4.16241 17.7807 4.37505ZM3.99995 6.97297V14H15.9999V6.91501L10.392 10.8206C10.0412 11.0649 9.57396 11.0592 9.22923 10.8065L3.99995 6.97297ZM13.8142 5.99997H6.05543L9.83537 8.77097L13.8142 5.99997Z"/>
</svg>
