<svg viewBox="0 0 20 20" xmlns="http://www.w3.org/2000/svg">
<path fill-rule="evenodd" clip-rule="evenodd" d="M6.43714 2.69112C6.70434 2.70655 6.95419 2.82844 7.13082 3.02953L10.0579 6.36207C10.419 6.77312 10.3827 7.39799 9.9765 7.76448L9.18211 8.48119C9.19866 8.54305 9.22696 8.62737 9.27413 8.73527C9.45214 9.14244 9.79978 9.66271 10.2376 10.1613C10.676 10.6606 11.1421 11.0668 11.5128 11.2871C11.5935 11.3351 11.6591 11.3679 11.7097 11.39L12.0223 11.1091C12.2015 10.948 12.3736 10.7931 12.4479 10.7262C12.4729 10.7037 12.4868 10.6911 12.4864 10.6916C12.6841 10.511 12.946 10.4172 13.2135 10.4313C13.4809 10.4454 13.7315 10.5662 13.9091 10.7667L16.8481 14.0827C17.2106 14.4917 17.1777 15.1159 16.7742 15.4844C16.7692 15.4889 16.5333 15.7023 16.2945 15.9175L16.285 15.926C16.0716 16.1183 15.7911 16.371 15.7289 16.4201C14.0573 17.7399 12.1103 17.8574 10.3242 17.281C8.56833 16.7144 6.93126 15.4759 5.67219 13.9943C4.41281 12.5124 3.45968 10.7029 3.15914 8.91033C2.85515 7.09721 3.21687 5.21804 4.71655 3.84415L4.72168 3.83944L5.70913 2.94742C5.90772 2.768 6.16995 2.67569 6.43714 2.69112ZM6.06518 5.32105C5.19547 6.11937 4.90761 7.24362 5.1316 8.57963C5.35924 9.93737 6.1128 11.4243 7.19619 12.6992C8.27989 13.9743 9.62166 14.9528 10.9383 15.3776C12.2247 15.7927 13.4439 15.676 14.4896 14.8504C14.4795 14.8584 14.4876 14.8511 14.5202 14.8223C14.5421 14.8027 14.5753 14.7733 14.6215 14.732C14.6441 14.7117 14.6684 14.69 14.6937 14.6673L13.0805 12.8471C12.9798 12.9375 12.8957 13.0128 12.857 13.0468C12.4364 13.4215 11.9275 13.4701 11.5303 13.4091C11.1498 13.3507 10.7921 13.1854 10.4907 13.0063C9.88026 12.6434 9.25678 12.0755 8.7347 11.4809C8.21201 10.8856 7.72827 10.1921 7.44161 9.53643C7.29982 9.21212 7.18017 8.83864 7.16278 8.45786C7.14494 8.06736 7.23546 7.57088 7.63419 7.18489C7.6426 7.17674 7.65116 7.16874 7.65985 7.1609L7.90409 6.94054L6.29737 5.11128L6.06518 5.32105Z"/>
</svg>
