<svg viewBox="0 0 20 20" xmlns="http://www.w3.org/2000/svg">
<path d="M7 3C7 2.44772 7.44772 2 8 2H12C12.5523 2 13 2.44772 13 3C13 3.55228 12.5523 4 12 4H8C7.44772 4 7 3.55228 7 3Z"/>
<path fill-rule="evenodd" clip-rule="evenodd" d="M14.0305 15.4447L15.2929 16.7071C15.6834 17.0976 16.3166 17.0976 16.7071 16.7071C17.0976 16.3166 17.0976 15.6834 16.7071 15.2929L15.2752 13.861C15.7374 13.0106 16 12.036 16 11C16 7.68629 13.3137 5 10 5C8.96403 5 7.98938 5.26255 7.13897 5.72475L5.70711 4.29289C5.31658 3.90237 4.68342 3.90237 4.29289 4.29289C3.90237 4.68342 3.90237 5.31658 4.29289 5.70711L5.55528 6.96949C4.58886 8.03458 4 9.44852 4 11C4 14.3137 6.68629 17 10 17C11.5515 17 12.9654 16.4111 14.0305 15.4447ZM13.7659 12.3517C13.9174 11.9294 14 11.4744 14 11C14 8.79086 12.2091 7 10 7C9.52563 7 9.07055 7.08257 8.64835 7.23413L13.7659 12.3517ZM12.6138 14.028C11.9127 14.6337 10.9991 15 10 15C7.79086 15 6 13.2091 6 11C6 10.0009 6.36633 9.08726 6.97201 8.38623L12.6138 14.028Z"/>
</svg>
