<svg viewBox="0 0 20 20" xmlns="http://www.w3.org/2000/svg">
<path fill-rule="evenodd" clip-rule="evenodd" d="M2.61538 4.9001H4.14132C4.61388 3.5005 5.96357 2.5 7.53845 2.5C9.11334 2.5 10.4631 3.50054 10.9356 4.90019H17.3846C17.9885 4.90019 18.4999 5.38083 18.4999 6.00019C18.4999 6.61955 17.9885 7.10019 17.3846 7.10019H10.9355C10.4628 8.49966 9.11321 9.50004 7.53845 9.50004C5.96364 9.50004 4.61399 8.49962 4.14138 7.1001H2.61538C2.01139 7.1001 1.5 6.61948 1.5 6.00011C1.5 5.38074 2.01138 4.9001 2.61538 4.9001ZM7.53845 4.70001C8.29392 4.70001 8.88456 5.29388 8.88456 6.00001C8.88456 6.70616 8.29392 7.30003 7.53845 7.30003C6.78298 7.30003 6.1923 6.70614 6.1923 6.00001C6.1923 5.2939 6.78298 4.70001 7.53845 4.70001Z"/>
<path fill-rule="evenodd" clip-rule="evenodd" d="M12.4615 10.5C10.8866 10.5 9.53685 11.5005 9.06432 12.9002H2.6154C2.0114 12.9002 1.50002 13.3808 1.50002 14.0002C1.50002 14.6196 2.01145 15.1002 2.6154 15.1002H9.06444C9.53708 16.4996 10.8867 17.5 12.4615 17.5C14.0363 17.5 15.3859 16.4996 15.8585 15.1002H17.3846C17.9886 15.1002 18.5 14.6195 18.5 14.0001C18.5 13.3807 17.9886 12.9001 17.3846 12.9001H15.8586C15.3861 11.5005 14.0364 10.5 12.4615 10.5ZM12.4615 15.3C11.7061 15.3 11.1154 14.7061 11.1154 14C11.1154 13.2939 11.706 12.7 12.4615 12.7C13.217 12.7 13.8077 13.2939 13.8077 14C13.8077 14.7061 13.217 15.3 12.4615 15.3Z"/>
</svg>
