<svg viewBox="0 0 20 20" xmlns="http://www.w3.org/2000/svg">
<path fill-rule="evenodd" clip-rule="evenodd" d="M8.19631 15.8725C8.34531 16.4381 8.28923 17.0078 7.99058 17.4914C7.69314 17.9726 7.20783 18.285 6.63385 18.4255C6.43146 18.4749 6.22969 18.5 6.03252 18.5C5.05667 18.5 4.27654 17.8889 4.0194 16.9117L2.94511 12.828C1.45464 12.431 0.5 11.1934 0.5 9.55108V9.3715C0.5 8.38001 0.848044 7.51652 1.48577 6.90154C2.12124 6.28875 3.00624 5.95906 4.01751 5.95835L7.52368 5.91377C9.59043 5.58925 11.2822 4.25608 12.7401 3.09515L12.7559 3.08264C13.2645 2.67751 13.7493 2.29143 14.1979 2.00874C14.6443 1.72748 15.1274 1.5 15.6273 1.5C16.0833 1.5 16.5042 1.64936 16.8142 1.94817C17.1257 2.24853 17.2868 2.66317 17.2868 3.11772V6.39202C18.578 6.85413 19.5 8.06493 19.5 9.46132C19.5 10.8576 18.5779 12.0683 17.2868 12.5306V15.8046C17.2868 16.2592 17.1257 16.6738 16.8141 16.9741C16.5041 17.2729 16.0832 17.4223 15.6273 17.4223C15.1274 17.4223 14.6444 17.1948 14.1981 16.9136C13.7496 16.631 13.2649 16.245 12.7563 15.84L12.7401 15.8272C11.2822 14.6662 9.59046 13.3331 7.52368 13.0085L7.44272 13.0075L8.19631 15.8725ZM5.80429 12.9865L4.6159 12.9715L5.54932 16.5196C5.60534 16.7329 5.70008 16.835 5.78538 16.884C5.87312 16.9343 6.02049 16.9682 6.25342 16.9113C6.48 16.856 6.59122 16.7596 6.64079 16.6793C6.68842 16.6024 6.72122 16.4717 6.66664 16.265L5.80429 12.9865ZM17.2869 8.16338V10.7589C17.6783 10.4392 17.9194 9.96658 17.9194 9.46132C17.9194 8.95587 17.6782 8.48308 17.2869 8.16338ZM13.7326 14.6135C14.1958 14.9824 14.6036 15.3066 14.9562 15.5404C15.1313 15.6566 15.2797 15.7415 15.4028 15.7961C15.5303 15.8526 15.6004 15.8629 15.6272 15.8629C15.6644 15.8629 15.6884 15.8588 15.7019 15.8553C15.7039 15.845 15.7061 15.8286 15.7061 15.8048V3.11792C15.7061 3.09425 15.704 3.07796 15.7019 3.06773C15.6884 3.06423 15.6645 3.06008 15.6272 3.06008C15.6004 3.06008 15.5302 3.07039 15.4027 3.12689C15.2796 3.18147 15.1312 3.26631 14.9561 3.38246C14.6035 3.61627 14.1957 3.9404 13.7327 4.30917L13.7029 4.33289C12.4177 5.35654 10.6078 6.79813 8.38331 7.33324V11.5895C10.6059 12.1242 12.4144 13.564 13.6997 14.5873L13.7326 14.6135ZM4.0274 11.4041L6.80273 11.4394V7.48297L4.02498 7.51827C3.36958 7.51827 2.89334 7.7125 2.58378 8.01068C2.27639 8.30677 2.08078 8.75576 2.08076 9.37145L2.0809 9.55083C2.0809 10.1665 2.27652 10.6157 2.58363 10.9119C2.89281 11.2101 3.36803 11.4041 4.02105 11.4041L4.0274 11.4041Z"/>
</svg>
