<svg viewBox="0 0 20 20" xmlns="http://www.w3.org/2000/svg">
<path fill-rule="evenodd" clip-rule="evenodd" d="M6.49997 3.83332C6.49997 2.91285 7.24616 2.16666 8.16664 2.16666H11.5C12.4204 2.16666 13.1666 2.91285 13.1666 3.83332V4.66666H15.6666C16.1269 4.66666 16.5 5.03975 16.5 5.49999C16.5 5.96023 16.1269 6.33332 15.6666 6.33332H14.8333V14.6667C14.8333 15.5871 14.0871 16.3333 13.1666 16.3333H6.49995C5.57947 16.3333 4.83328 15.5871 4.83328 14.6667V6.33332H3.99996C3.53972 6.33332 3.16663 5.96023 3.16663 5.49999C3.16663 5.03975 3.53972 4.66666 3.99996 4.66666H6.49997V3.83332ZM8.16664 4.66666H11.5V3.83332H8.16664V4.66666ZM6.49995 6.33332V14.6667L13.1666 14.6667V6.33332H6.49995Z"/>
</svg>
