<svg viewBox="0 0 20 20" xmlns="http://www.w3.org/2000/svg">
<path fill-rule="evenodd" clip-rule="evenodd" d="M10 3.05554C10.6137 3.05554 11.1111 3.553 11.1111 4.16665V9.31451L11.8921 8.55518C12.3321 8.12742 13.0356 8.13732 13.4633 8.57731C13.8911 9.01729 13.8812 9.72074 13.4412 10.1485L10.7745 12.7411C10.3433 13.1604 9.65672 13.1604 9.22548 12.7411L6.55881 10.1485C6.11883 9.72074 6.10892 9.01729 6.53668 8.57731C6.96444 8.13732 7.66789 8.12742 8.10787 8.55518L8.8889 9.31451V4.16665C8.8889 3.553 9.38636 3.05554 10 3.05554Z"/>
<path d="M3.74734 12.2222C4.36099 12.2222 4.85845 12.7197 4.85845 13.3333V14.6418C4.86781 14.653 4.87898 14.6638 4.89211 14.6738C4.93101 14.7033 4.98324 14.7222 5.04067 14.7222H14.9593C15.0168 14.7222 15.069 14.7033 15.1079 14.6738L15.1416 13.3333C15.1416 12.7197 15.639 12.2222 16.2527 12.2222C16.8663 12.2222 17.3638 12.7197 17.3638 13.3333V14.8514C17.3638 14.9447 17.352 15.0377 17.3288 15.1281C17.1933 15.6552 16.882 16.117 16.4517 16.4437C16.0219 16.7699 15.4967 16.9444 14.9595 16.9445H5.04067C4.50352 16.9444 3.97809 16.7699 3.54834 16.4437C3.11806 16.117 2.80676 15.6552 2.67123 15.1281C2.64799 15.0377 2.63623 14.9447 2.63623 14.8514V13.3333C2.63623 12.7197 3.13369 12.2222 3.74734 12.2222Z"/>
</svg>
