<svg viewBox="0 0 20 20" xmlns="http://www.w3.org/2000/svg">
<path fill-rule="evenodd" clip-rule="evenodd" d="M13.1441 3.81075C13.4695 3.48532 13.9972 3.48532 14.3226 3.81075L16.6963 6.18444C17.0217 6.50988 17.0217 7.03752 16.6963 7.36295L8.94172 15.1175C8.82235 15.2369 8.66954 15.3172 8.50352 15.3478L5.59344 15.8842C5.32381 15.9339 5.04699 15.8478 4.85312 15.6539C4.65926 15.46 4.57315 15.1832 4.62285 14.9136L5.15924 12.0035C5.18984 11.8375 5.27014 11.6847 5.38952 11.5653L13.1441 3.81075ZM13.7333 5.57852L6.75131 12.5605L6.48123 14.0258L7.94649 13.7557L14.9285 6.7737L13.7333 5.57852Z"/>
</svg>
