<svg viewBox="0 0 20 20" xmlns="http://www.w3.org/2000/svg">
<path d="M5.99997 3C5.44769 3 4.99997 3.44772 4.99997 4C4.99997 4.55228 5.44769 5 5.99997 5H14C14.5523 5 15 4.55228 15 4C15 3.44772 14.5523 3 14 3H5.99997Z"/>
<path d="M5.19994 10.6C4.86857 10.1582 4.95811 9.53137 5.39994 9.2L9.39994 6.2C9.75549 5.93333 10.2444 5.93333 10.5999 6.2L14.5999 9.2C15.0418 9.53137 15.1313 10.1582 14.7999 10.6C14.4686 11.0418 13.8418 11.1314 13.3999 10.8L11 9.00003L11 15C11 15.5523 10.5523 16 9.99997 16C9.44769 16 8.99997 15.5523 8.99997 15L8.99997 9L6.59994 10.8C6.15811 11.1314 5.53131 11.0418 5.19994 10.6Z"/>
</svg>
