<svg viewBox="0 0 20 20" xmlns="http://www.w3.org/2000/svg">
<path fill-rule="evenodd" clip-rule="evenodd" d="M4.13101 4.131C5.68767 2.57444 7.7987 1.69995 9.99995 1.69995C12.2013 1.69995 14.3123 2.57435 15.8689 4.13101C17.4255 5.68766 18.2999 7.79856 18.2999 9.99995C18.2999 12.2013 17.4256 14.3123 15.8689 15.8689C14.3122 17.4255 12.2013 18.2999 9.99995 18.2999C7.79858 18.2999 5.68758 17.4256 4.131 15.8689C2.57444 14.3122 1.69995 12.2013 1.69995 9.99995C1.69995 7.79858 2.57435 5.68758 4.13101 4.131ZM3.78144 9.96715C3.78358 8.31658 4.44177 6.73454 5.6111 5.56967C7 4.34314 8 3.78662 10.0161 3.78662C12 3.78662 13.5701 4.74586 14.4108 5.59185C15.5742 6.76266 16.2243 8.34798 16.2181 9.9986V9.99973C16.2181 11.649 15.563 13.2305 14.3968 14.3968C13.2305 15.5631 11.6493 16.2181 9.99995 16.2181C8.35225 16.2181 6.76855 15.5394 5.59991 14.3693C4.43356 13.2014 3.77946 11.6179 3.78144 9.96715Z"/>
<path fill-rule="evenodd" clip-rule="evenodd" d="M10.0801 12.1207H10.0184C9.50227 12.1207 9.08386 12.5391 9.08386 13.0553C9.08386 13.5714 9.50227 13.9898 10.0184 13.9898H10.0801C10.5962 13.9898 11.0146 13.5714 11.0146 13.0553C11.0146 12.5391 10.5962 12.1207 10.0801 12.1207Z"/>
<path d="M8.33945 6.44692C8.81534 6.15375 9.36656 6.00601 9.92523 6.022C10.6406 5.99677 11.354 6.20486 11.9474 6.60556C12.5135 7.03216 12.8227 7.71793 12.7679 8.42423C12.7812 8.85791 12.6567 9.28481 12.412 9.64334L12.407 9.65055L12.4015 9.65731C12.1756 9.93323 11.9137 10.1777 11.6231 10.3841L11.2576 10.6522C11.1116 10.7702 11.007 10.9314 10.9586 11.1127C10.9122 11.2887 10.8896 11.4701 10.8912 11.6523L10.8929 11.854H9.10967L9.10856 11.6551C9.10621 11.2336 9.16734 10.814 9.28995 10.4107L9.29554 10.3923L9.30453 10.3754C9.48173 10.0405 9.73888 9.75444 10.0532 9.54295L10.4262 9.24485C10.5228 9.17528 10.6079 9.08992 10.6775 8.99336C10.7826 8.84872 10.8384 8.67419 10.8369 8.49533L10.8369 8.48945C10.8414 8.27621 10.7766 8.06737 10.6523 7.8944L10.6502 7.89146C10.556 7.75522 10.365 7.65664 9.99993 7.65664H9.99061L9.98134 7.65578C9.85461 7.64395 9.72679 7.66639 9.61141 7.72065C9.49666 7.77461 9.39831 7.8583 9.32674 7.96293C9.18949 8.17259 9.11544 8.41743 9.11351 8.66807L9.11197 8.86653H7.22498L7.2321 8.65964C7.26661 7.65799 7.62513 6.90474 8.33642 6.44882L8.33945 6.44692Z"/>
</svg>
