<svg viewBox="0 0 20 20" xmlns="http://www.w3.org/2000/svg">
<path fill-rule="evenodd" clip-rule="evenodd" d="M3.70711 2.29289C3.31658 1.90237 2.68342 1.90237 2.29289 2.29289C1.90237 2.68342 1.90237 3.31658 2.29289 3.70711L4.58479 5.99901C4.24463 6.24285 3.92949 6.49336 3.64088 6.74074C2.85975 7.41028 2.24803 8.07781 1.83074 8.57857C1.62154 8.82961 1.4597 9.04054 1.34842 9.1913C1.29581 9.26258 1.20844 9.38743 1.17351 9.43736L1.16795 9.4453C0.944017 9.7812 0.944017 10.2188 1.16795 10.5547L1.34842 10.8087C1.4597 10.9595 1.62154 11.1704 1.83074 11.4214C2.24803 11.9222 2.85975 12.5897 3.64088 13.2593C5.18735 14.5848 7.49543 16 10.3333 16C11.6224 16 12.8021 15.708 13.8508 15.2651L16.2929 17.7071C16.6834 18.0976 17.3166 18.0976 17.7071 17.7071C18.0976 17.3166 18.0976 16.6834 17.7071 16.2929L15.6872 14.273C16.181 13.9462 16.6285 13.5998 17.0258 13.2593C17.8069 12.5897 18.4186 11.9222 18.8359 11.4214C19.0451 11.1704 19.207 10.9595 19.3182 10.8087C19.3708 10.7375 19.4581 10.6128 19.4931 10.5628L19.4987 10.5547C19.7227 10.2188 19.7222 9.78058 19.4983 9.44468L19.4932 9.43745C19.4587 9.38807 19.3711 9.26292 19.3182 9.1913C19.207 9.04054 19.0451 8.82961 18.8359 8.57857C18.4186 8.07781 17.8069 7.41028 17.0258 6.74074C15.4793 5.41519 13.1712 4 10.3333 4C8.85246 4 7.51585 4.38535 6.35645 4.94223L3.70711 2.29289ZM4.94246 8.25926C5.27436 7.97477 5.63492 7.69554 6.02151 7.43572L7.29237 8.70658C7.10495 9.09822 7 9.53685 7 10C7 11.6569 8.34315 13 10 13C10.4631 13 10.9018 12.895 11.2934 12.7076L12.2908 13.705C11.6727 13.8911 11.0183 14 10.3333 14C8.17124 14 6.31265 12.9152 4.94246 11.7407C4.26525 11.1603 3.73113 10.5778 3.36718 10.1411C3.32633 10.092 3.2877 10.0449 3.25132 10C3.2877 9.95505 3.32633 9.90796 3.36718 9.85893C3.73113 9.42219 4.26525 8.83972 4.94246 8.25926ZM15.7242 11.7407C15.2785 12.1228 14.7811 12.4953 14.2384 12.8242L12.7076 11.2934C12.895 10.9018 13 10.4631 13 10C13 8.34315 11.6569 7 10 7C9.53685 7 9.09822 7.10495 8.70658 7.29237L7.8781 6.46388C8.63908 6.17637 9.46154 6 10.3333 6C12.4954 6 14.354 7.08481 15.7242 8.25926C16.4014 8.83972 16.9355 9.42219 17.2995 9.85893C17.3403 9.90796 17.379 9.95505 17.4153 10C17.379 10.0449 17.3403 10.092 17.2995 10.1411C16.9355 10.5778 16.4014 11.1603 15.7242 11.7407Z"/>
</svg>
