<svg viewBox="0 0 20 20" xmlns="http://www.w3.org/2000/svg">
<path d="M10 3C10.5523 3 11 3.44772 11 4L11 10L13.4001 8.2C13.8419 7.86863 14.4687 7.95817 14.8001 8.4C15.1314 8.84183 15.0419 9.46863 14.6001 9.8L10.6001 12.8C10.2445 13.0667 9.75561 13.0667 9.40006 12.8L5.40006 9.8C4.95823 9.46863 4.86869 8.84183 5.20006 8.4C5.53143 7.95817 6.15823 7.86863 6.60006 8.2L9.00002 9.99997L9.00002 4C9.00002 3.44772 9.44774 3 10 3Z"/>
<path d="M14 16C14.5523 16 15 15.5523 15 15C15 14.4477 14.5523 14 14 14H6.00002C5.44774 14 5.00002 14.4477 5.00002 15C5.00002 15.5523 5.44774 16 6.00002 16H14Z"/>
</svg>
