<svg viewBox="0 0 20 20" xmlns="http://www.w3.org/2000/svg">
<path fill-rule="evenodd" clip-rule="evenodd" d="M5.8333 14.4667H8.74997C9.26083 14.4667 9.67497 14.0525 9.67497 13.5417C9.67497 13.0308 9.26083 12.6167 8.74997 12.6167H5.8333C5.10729 12.6167 4.4961 12.3635 3.98294 11.8504C3.46977 11.3372 3.21664 10.726 3.21664 9.99999C3.21664 9.27397 3.46977 8.66279 3.98294 8.14962C4.4961 7.63646 5.10729 7.38333 5.8333 7.38333H8.74997C9.26083 7.38333 9.67497 6.96919 9.67497 6.45833C9.67497 5.94746 9.26083 5.53333 8.74997 5.53333H5.8333C4.60125 5.53333 3.54222 5.97098 2.67326 6.83994C1.80429 7.70891 1.36664 8.76794 1.36664 9.99999C1.36664 11.232 1.80429 12.2911 2.67326 13.16C3.54222 14.029 4.60125 14.4667 5.8333 14.4667Z"/>
<path fill-rule="evenodd" clip-rule="evenodd" d="M12.6041 9.07499H7.3958C6.88494 9.07499 6.4708 9.48913 6.4708 9.99999C6.4708 10.5109 6.88494 10.925 7.39581 10.925H12.6041C13.115 10.925 13.5291 10.5109 13.5291 9.99999C13.5291 9.48913 13.115 9.07499 12.6041 9.07499Z"/>
<path fill-rule="evenodd" clip-rule="evenodd" d="M14.1666 12.6167H11.25C10.7391 12.6167 10.325 13.0308 10.325 13.5417C10.325 14.0525 10.7391 14.4667 11.25 14.4667H14.1666C15.3987 14.4667 16.4577 14.029 17.3267 13.16C18.1957 12.2911 18.6333 11.232 18.6333 9.99999C18.6333 8.76794 18.1957 7.70891 17.3267 6.83994C16.4577 5.97098 15.3987 5.53333 14.1666 5.53333H11.25C10.7391 5.53333 10.325 5.94746 10.325 6.45833C10.325 6.96919 10.7391 7.38333 11.25 7.38333H14.1666C14.8927 7.38333 15.5038 7.63646 16.017 8.14962C16.5302 8.66279 16.7833 9.27397 16.7833 9.99999C16.7833 10.726 16.5302 11.3372 16.017 11.8504C15.5038 12.3635 14.8927 12.6167 14.1666 12.6167Z"/>
</svg>
