<svg viewBox="0 0 20 20" xmlns="http://www.w3.org/2000/svg">
<path d="M3.25 5C3.25 4.58579 3.58579 4.25 4 4.25H12C12.4142 4.25 12.75 4.58579 12.75 5V7C12.75 7.41421 12.4142 7.75 12 7.75C11.5858 7.75 11.25 7.41421 11.25 7V5.75H4.75V14.9167H11.25V13.6667C11.25 13.2525 11.5858 12.9167 12 12.9167C12.4142 12.9167 12.75 13.2525 12.75 13.6667V15.6667C12.75 16.0809 12.4142 16.4167 12 16.4167H4C3.58579 16.4167 3.25 16.0809 3.25 15.6667V5Z"/>
<path d="M13.4698 7.80298C13.7627 7.51009 14.2376 7.51009 14.5305 7.80298L16.5305 9.80298C16.8233 10.0959 16.8233 10.5708 16.5305 10.8636L14.5305 12.8636C14.2376 13.1565 13.7627 13.1565 13.4698 12.8636C13.1769 12.5708 13.1769 12.0959 13.4698 11.803L14.1895 11.0833H8.66663C8.25241 11.0833 7.91663 10.7475 7.91663 10.3333C7.91663 9.9191 8.25241 9.58331 8.66663 9.58331H14.1895L13.4698 8.86364C13.1769 8.57075 13.1769 8.09588 13.4698 7.80298Z"/>
</svg>
