<svg viewBox="0 0 20 20" xmlns="http://www.w3.org/2000/svg">
<path d="M7.5 6.5C8.32843 6.5 9 5.82843 9 5C9 4.17157 8.32843 3.5 7.5 3.5C6.67157 3.5 6 4.17157 6 5C6 5.82843 6.67157 6.5 7.5 6.5Z"/>
<path d="M7.5 11.5C8.32843 11.5 9 10.8284 9 10C9 9.17157 8.32843 8.5 7.5 8.5C6.67157 8.5 6 9.17157 6 10C6 10.8284 6.67157 11.5 7.5 11.5Z"/>
<path d="M9 15C9 15.8284 8.32843 16.5 7.5 16.5C6.67157 16.5 6 15.8284 6 15C6 14.1716 6.67157 13.5 7.5 13.5C8.32843 13.5 9 14.1716 9 15Z"/>
<path d="M12.5 6.5C13.3284 6.5 14 5.82843 14 5C14 4.17157 13.3284 3.5 12.5 3.5C11.6716 3.5 11 4.17157 11 5C11 5.82843 11.6716 6.5 12.5 6.5Z"/>
<path d="M14 10C14 10.8284 13.3284 11.5 12.5 11.5C11.6716 11.5 11 10.8284 11 10C11 9.17157 11.6716 8.5 12.5 8.5C13.3284 8.5 14 9.17157 14 10Z"/>
<path d="M12.5 16.5C13.3284 16.5 14 15.8284 14 15C14 14.1716 13.3284 13.5 12.5 13.5C11.6716 13.5 11 14.1716 11 15C11 15.8284 11.6716 16.5 12.5 16.5Z"/>
</svg>
