<svg viewBox="0 0 20 20" xmlns="http://www.w3.org/2000/svg">
<path d="M10 6C10.5523 6 11 6.44772 11 7V9H13C13.5523 9 14 9.44772 14 10C14 10.5523 13.5523 11 13 11H11V13C11 13.5523 10.5523 14 10 14C9.44772 14 9 13.5523 9 13V11H7C6.44772 11 6 10.5523 6 10C6 9.44771 6.44772 9 7 9H9V7C9 6.44772 9.44772 6 10 6Z"/>
<path fill-rule="evenodd" clip-rule="evenodd" d="M18 10C18 14.4183 14.4183 18 10 18C5.58172 18 2 14.4183 2 10C2 5.58172 5.58172 2 10 2C14.4183 2 18 5.58172 18 10ZM16 10C16 13.3137 13.3137 16 10 16C6.68629 16 4 13.3137 4 10C4 6.68629 6.68629 4 10 4C13.3137 4 16 6.68629 16 10Z"/>
</svg>
