<svg viewBox="0 0 20 20" xmlns="http://www.w3.org/2000/svg">
<path fill-rule="evenodd" clip-rule="evenodd" d="M7 4C6.44772 4 6 4.44772 6 5V7H3C2.44772 7 2 7.44772 2 8V15C2 15.5523 2.44772 16 3 16H6V17C6 17.5523 6.44772 18 7 18H13C13.5523 18 14 17.5523 14 17V16H17C17.5523 16 18 15.5523 18 15V8C18 7.44772 17.5523 7 17 7H14V5C14 4.44772 13.5523 4 13 4H7ZM12 7V6H8V7H12ZM4 9V14H5.71429V13.75C5.71429 13.3128 5.85455 12.9084 6.09252 12.5793C6.19879 12.3505 6.38907 12.1686 6.62376 12.0732C6.93742 11.8688 7.31198 11.75 7.71429 11.75H12.2857C12.688 11.75 13.0626 11.8688 13.3762 12.0732C13.6109 12.1686 13.8012 12.3505 13.9075 12.5793C14.1455 12.9084 14.2857 13.3128 14.2857 13.75V14H16V9H4ZM12 14H8V16H12V14Z"/>
</svg>
