<svg viewBox="0 0 20 20" xmlns="http://www.w3.org/2000/svg">
<path d="M11.5485 3.17417C10.3951 2.91322 9.19453 2.94868 8.05864 3.27724C6.92796 3.60429 5.89808 4.21114 5.0642 5.04158L3.66663 6.35481V4.66668C3.66663 4.11439 3.21891 3.66668 2.66663 3.66668C2.11434 3.66668 1.66663 4.11439 1.66663 4.66668V8.66668C1.66663 9.21896 2.11434 9.66668 2.66663 9.66668H6.66663C7.21891 9.66668 7.66663 9.21896 7.66663 8.66668C7.66663 8.11439 7.21891 7.66668 6.66663 7.66668H5.19118L6.44473 6.48876C6.45235 6.48161 6.45985 6.47433 6.46724 6.46694C7.06432 5.86956 7.803 5.43317 8.61436 5.19848C9.42571 4.9638 10.2833 4.93847 11.1071 5.12486C11.9309 5.31125 12.694 5.70329 13.3253 6.26439C13.9566 6.8255 14.4355 7.53738 14.7172 8.33361C14.9015 8.85425 15.4729 9.12697 15.9936 8.94273C16.5142 8.75849 16.7869 8.18706 16.6027 7.66641C16.2082 6.55169 15.5378 5.55506 14.654 4.76952C13.7702 3.98397 12.7018 3.43512 11.5485 3.17417Z"/>
<path d="M14.8087 12.3333H13.3333C12.781 12.3333 12.3333 11.8856 12.3333 11.3333C12.3333 10.7811 12.781 10.3333 13.3333 10.3333H17.3333C17.8856 10.3333 18.3333 10.7811 18.3333 11.3333V15.3333C18.3333 15.8856 17.8856 16.3333 17.3333 16.3333C16.781 16.3333 16.3333 15.8856 16.3333 15.3333V13.6452L14.9357 14.9585C14.1018 15.7889 13.072 16.3957 11.9413 16.7228C10.8054 17.0513 9.60477 17.0868 8.45146 16.8258C7.29816 16.5649 6.22975 16.016 5.34594 15.2305C4.46212 14.445 3.79171 13.4483 3.39724 12.3336C3.213 11.813 3.48572 11.2415 4.00636 11.0573C4.52701 10.8731 5.09844 11.1458 5.28268 11.6664C5.56444 12.4626 6.0433 13.1745 6.6746 13.7356C7.3059 14.2967 8.06904 14.6888 8.89283 14.8752C9.71662 15.0616 10.5742 15.0362 11.3856 14.8015C12.1969 14.5669 12.9356 14.1305 13.5327 13.5331C13.5401 13.5257 13.5476 13.5184 13.5552 13.5113L14.8087 12.3333Z"/>
</svg>
