<svg viewBox="0 0 20 20" xmlns="http://www.w3.org/2000/svg">
<path fill-rule="evenodd" clip-rule="evenodd" d="M8.99999 4.16666C6.33061 4.16666 4.16666 6.33061 4.16666 8.99999C4.16666 11.6694 6.33061 13.8333 8.99999 13.8333C10.0337 13.8333 10.9917 13.5088 11.7775 12.956L14.4107 15.5892C14.7362 15.9147 15.2638 15.9147 15.5892 15.5892C15.9147 15.2638 15.9147 14.7362 15.5892 14.4107L12.956 11.7775C13.5088 10.9917 13.8333 10.0337 13.8333 8.99999C13.8333 6.33061 11.6694 4.16666 8.99999 4.16666ZM5.83332 8.99999C5.83332 7.25109 7.25109 5.83332 8.99999 5.83332C10.7489 5.83332 12.1667 7.25109 12.1667 8.99999C12.1667 10.7489 10.7489 12.1667 8.99999 12.1667C7.25109 12.1667 5.83332 10.7489 5.83332 8.99999Z"/>
</svg>
