<svg viewBox="0 0 20 20" xmlns="http://www.w3.org/2000/svg">
<path fill-rule="evenodd" clip-rule="evenodd" d="M3.40593 2.19562C3.70848 1.97216 4.11082 1.93737 4.44724 2.10558L18.4472 9.10558C18.786 9.27497 19 9.62123 19 10C19 10.3788 18.786 10.725 18.4472 10.8944L4.44724 17.8944C4.11082 18.0626 3.70848 18.0279 3.40593 17.8044C3.10337 17.5809 2.9518 17.2066 3.01363 16.8356L4.1529 10L3.01363 3.1644C2.9518 2.7934 3.10337 2.41907 3.40593 2.19562ZM6.01382 11L5.30926 15.2274L15.764 10L5.30926 4.77266L6.01382 9.00001H11C11.5523 9.00001 12 9.44772 12 10C12 10.5523 11.5523 11 11 11H6.01382Z"/>
</svg>
