<svg viewBox="0 0 20 20" xmlns="http://www.w3.org/2000/svg">
<path fill-rule="evenodd" clip-rule="evenodd" d="M10 7C8.34315 7 7 8.34315 7 10C7 11.6569 8.34315 13 10 13C11.6569 13 13 11.6569 13 10C13 8.34315 11.6569 7 10 7ZM9 10C9 9.44772 9.44772 9 10 9C10.5523 9 11 9.44772 11 10C11 10.5523 10.5523 11 10 11C9.44772 11 9 10.5523 9 10Z"/>
<path fill-rule="evenodd" clip-rule="evenodd" d="M18.8423 10.5391C19.0526 10.2105 19.0522 9.78893 18.8419 9.46033L18.8402 9.45778L18.837 9.45279L18.827 9.43745C18.8188 9.42487 18.8074 9.40765 18.7929 9.38609C18.7639 9.34297 18.7225 9.28245 18.6691 9.20701C18.5622 9.05623 18.4068 8.84523 18.2059 8.59406C17.8051 8.09315 17.2172 7.42479 16.466 6.75406C14.9815 5.42864 12.7519 4 10 4C7.2481 4 5.01846 5.42864 3.53398 6.75406C2.78276 7.42479 2.19486 8.09315 1.79413 8.59406C1.59319 8.84523 1.43778 9.05623 1.33094 9.20701C1.27749 9.28245 1.23608 9.34297 1.20711 9.38609C1.19262 9.40765 1.18123 9.42487 1.17298 9.43745L1.16298 9.45279L1.15976 9.45778L1.15859 9.45959C1.15859 9.45959 1.15773 9.46095 2 10L1.15773 9.46095C0.947424 9.78955 0.947424 10.2105 1.15773 10.5391L1.15859 10.5404L1.15976 10.5422L1.16298 10.5472L1.17298 10.5626C1.18123 10.5751 1.19262 10.5924 1.20711 10.6139C1.23608 10.657 1.27749 10.7175 1.33094 10.793C1.43778 10.9438 1.59319 11.1548 1.79413 11.4059C2.19486 11.9069 2.78276 12.5752 3.53398 13.2459C5.01846 14.5714 7.2481 16 10 16C12.7519 16 14.9815 14.5714 16.466 13.2459C17.2172 12.5752 17.8051 11.9069 18.2059 11.4059C18.4068 11.1548 18.5622 10.9438 18.6691 10.793C18.7196 10.7217 18.8035 10.5968 18.837 10.5469L18.8423 10.5391ZM3.35587 10.1566C3.31212 10.1019 3.27103 10.0496 3.23263 10C3.27103 9.95041 3.31212 9.89813 3.35587 9.84344C3.70514 9.40685 4.21724 8.82521 4.86602 8.24594C6.18154 7.07136 7.9519 6 10 6C12.0481 6 13.8185 7.07136 15.134 8.24594C15.7828 8.82521 16.2949 9.40685 16.6441 9.84344C16.6879 9.89813 16.729 9.95041 16.7674 10C16.729 10.0496 16.6879 10.1019 16.6441 10.1566C16.2949 10.5931 15.7828 11.1748 15.134 11.7541C13.8185 12.9286 12.0481 14 10 14C7.9519 14 6.18154 12.9286 4.86602 11.7541C4.21724 11.1748 3.70514 10.5931 3.35587 10.1566Z"/>
<path fill-rule="evenodd" clip-rule="evenodd" d="M10 7C8.34315 7 7 8.34315 7 10C7 11.6569 8.34315 13 10 13C11.6569 13 13 11.6569 13 10C13 8.34315 11.6569 7 10 7ZM9 10C9 9.44772 9.44772 9 10 9C10.5523 9 11 9.44772 11 10C11 10.5523 10.5523 11 10 11C9.44772 11 9 10.5523 9 10Z"/>
</svg>
