<svg viewBox="0 0 20 20" xmlns="http://www.w3.org/2000/svg">
<path fill-rule="evenodd" clip-rule="evenodd" d="M6.5 3.83335C6.5 2.91288 7.24619 2.16669 8.16667 2.16669H11.5C12.4205 2.16669 13.1667 2.91288 13.1667 3.83335V4.66669H15.6666C16.1269 4.66669 16.5 5.03978 16.5 5.50002C16.5 5.96026 16.1269 6.33335 15.6666 6.33335H14.8333V14.6667C14.8333 15.5872 14.0871 16.3334 13.1666 16.3334H6.49992C5.57944 16.3334 4.83325 15.5872 4.83325 14.6667V6.33335H3.99996C3.53972 6.33335 3.16663 5.96026 3.16663 5.50002C3.16663 5.03978 3.53972 4.66669 3.99996 4.66669H6.5V3.83335ZM8.16667 4.66669H11.5V3.83335H8.16667V4.66669ZM6.49992 6.33335V14.6667L13.1666 14.6667V6.33335H6.49992Z"/>
</svg>
