<svg viewBox="0 0 20 20" xmlns="http://www.w3.org/2000/svg">
<path d="M3.75174 12.3333C4.30402 12.3343 4.75095 12.7828 4.74998 13.3351L4.74762 14.6773C4.76653 14.7084 4.79224 14.7375 4.8249 14.7623C4.88334 14.8066 4.95922 14.8333 5.04065 14.8333H14.9593C15.0407 14.8333 15.1166 14.8066 15.1751 14.7623C15.2077 14.7375 15.2334 14.7084 15.2523 14.6773L15.25 13.3351C15.249 12.7828 15.6959 12.3343 16.2482 12.3333C16.8005 12.3324 17.249 12.7793 17.25 13.3316L17.2526 14.8496C17.2528 14.9342 17.2422 15.0185 17.2211 15.1004C17.092 15.6029 16.7952 16.0434 16.3845 16.3552C15.9743 16.6666 15.4726 16.8333 14.9595 16.8333H5.04065C4.52748 16.8333 4.02571 16.6666 3.6155 16.3552C3.20481 16.0434 2.908 15.6029 2.77881 15.1004C2.75775 15.0185 2.74717 14.9342 2.74731 14.8496L2.74998 13.3316C2.75095 12.7793 3.19945 12.3324 3.75174 12.3333Z"/>
<path fill-rule="evenodd" clip-rule="evenodd" d="M10 12.9445C9.44773 12.9445 9.00002 12.4967 9.00002 11.9445L9.00002 6.53361L8.03043 7.47627C7.63445 7.86125 7.00134 7.85234 6.61636 7.45635C6.23137 7.06037 6.24029 6.42726 6.63627 6.04228L9.30294 3.44969C9.69106 3.07235 10.309 3.07235 10.6971 3.44969L13.3638 6.04228C13.7597 6.42726 13.7687 7.06037 13.3837 7.45635C12.9987 7.85234 12.3656 7.86125 11.9696 7.47627L11 6.53361L11 11.9445C11 12.4967 10.5523 12.9445 10 12.9445Z"/>
</svg>
